<?xml version="1.0" encoding="UTF-8"?>
<svg id="Layer_1" data-name="Layer 1" xmlns="http://www.w3.org/2000/svg" viewBox="0 0 528 495">
  <path d="M364.07,76.54l-.05-.1-100.24-30.17-.07-.02-100.11,30.11-.11.03-55.45,123.3-.39,1.41,98.65,165.06v62.86l28.26,19.72h58.35l29.33-19.72v-63.01l98.01-164.84.07-.11-56.26-124.53ZM316.51,367.94v53.83l-99.16-53.83h99.16ZM207.89,357.87l-93.69-157.18.05-.12,65.97-32.08,27.66,189.37ZM179.82,165.69l-63.83,31.03,51.66-114.88,12.17,83.84ZM174.53,81.42h178.6l-89.33,43.43-89.27-43.43ZM260.7,126.36l-78.33,38.08-11.9-81.98,90.23,43.9ZM253.36,312.69l4.46-17.83,16.57,16.26-21.03,1.58ZM272.26,244.47l33.51,33.18-9.56,30.98-8.32,1.01-33.52-31.99-.29-.28-14.74,45.81,44.88-2.64,12.16,11.58-5.71,30.07h-47.79l-21.02-81.86,50.42-35.86ZM301.28,362.19l6.4-33.7-10.02-9.56,6.52-.78,13.39-43.34.04-.14-44.07-43.68-.15-.15-63.3,44.99-.14.1,22.68,86.26h-21.61l-28.25-194.77,81.02-39.47,81.7,39.87-29.77,194.37h-14.45ZM348.48,166.06l12.52-81.68,50.51,112.35-63.03-30.67ZM266.89,126.36l91.77-44.62-12.73,83.07-79.04-38.45ZM413.29,200.69l-94.37,158.28,29.13-190.11,65.19,31.72.05.11ZM176.66,78.82l87.06-26.19,86.99,26.19h-174.05ZM310.72,423.07h-97.61v-54.93l97.61,54.93ZM236.85,443.01l-19.93-13.14h94.16l-20.42,13.14h-53.8Z"/>
</svg>