<?xml version="1.0" encoding="UTF-8"?>
<svg id="Layer_1" data-name="Layer 1" xmlns="http://www.w3.org/2000/svg" viewBox="0 0 474.79 585.37">
  <defs>
    <style>
      .cls-1 {
        fill: #231f20;
      }
    </style>
  </defs>
  <path class="cls-1" d="M220.72,165.09c-.06.03-.11.06-.17.09-.04.02-.07.04-.11.06.09-.05.19-.1.28-.15Z"/>
  <path class="cls-1" d="M304.25,181.3c.07.03.14.07.21.11.02.01.04.02.06.03-.09-.04-.18-.09-.27-.14Z"/>
  <path class="cls-1" d="M300.14,179.32s.01,0,.02.01c.02,0,.03.01.05.02-.02-.01-.05-.02-.07-.03Z"/>
  <path class="cls-1" d="M245.56,244.2c-1.3,0-2.27,1.06-2.33,2.33-.06,1.47-.1,2.92-.05,4.39.06,1.33.13,2.68.25,4.01.21,2.18.48,4.35.98,6.48.29,1.24,1.64,1.98,2.85,1.66.09-.02.18-.05.27-.09,1.08-.42,1.66-1.61,1.39-2.76-.09-.38-.17-.76-.25-1.15-.4-2.17-.61-4.38-.76-6.58-.04-.92-.11-1.84-.11-2.76,0-1.07.04-2.14.08-3.21.05-1.27-1.1-2.33-2.33-2.33Z"/>
  <path class="cls-1" d="M242.87,214.76c-1.25,0-2.35,1.07-2.32,2.34.04,2.77.16,5.53.45,8.29.27,2.41.64,4.79,1.03,7.18.2,1.26,1.32,2.18,2.61,2.01.18-.02.36-.07.53-.14.96-.38,1.65-1.4,1.48-2.47-.57-3.48-1.07-6.95-1.32-10.47-.07-1.46-.11-2.93-.13-4.4-.02-1.27-1.05-2.33-2.33-2.33Z"/>
  <path class="cls-1" d="M240.36,182.7c-1.23,0-2.39,1.06-2.33,2.33.16,3.35.14,6.72.4,10.07.24,3.03.73,6.04,1.32,9.01.03.18.07.36.1.54.22,1.25,1.3,2.18,2.6,2.01.18-.02.36-.07.52-.14.97-.38,1.68-1.41,1.49-2.48-.12-.61-.24-1.22-.36-1.84.02.1.04.2.06.3-.52-2.69-.91-5.42-1.13-8.15-.19-3.11-.21-6.22-.35-9.33-.06-1.27-1.02-2.33-2.33-2.33Z"/>
  <path class="cls-1" d="M237.42,145.18c.09-.02.18-.05.27-.09,1.09-.43,1.64-1.61,1.39-2.76-.3-1.37-.57-2.75-.85-4.13-.24-1.31-.4-2.62-.5-3.95-.05-1.23-.04-2.46-.03-3.69.02-1.27-1.07-2.33-2.33-2.33-1.28,0-2.32,1.06-2.33,2.33,0,1.23-.02,2.47.03,3.7.06,1.14.19,2.28.35,3.41.15,1.04.38,2.07.59,3.09.19.92.37,1.83.57,2.74.27,1.24,1.65,1.97,2.84,1.66Z"/>
  <path class="cls-1" d="M235.29,121.62c.19-.02.37-.07.54-.14.97-.38,1.6-1.4,1.47-2.47-.06-.5-.1-1.01-.14-1.51-.17-2.74-.29-5.48-.56-8.21-.13-1.27-1.38-2.17-2.61-2.01-1.28.17-2.14,1.35-2.01,2.61.14,1.4.25,2.8.34,4.21.11,1.84.15,3.68.36,5.52.15,1.26,1.36,2.17,2.61,2.01Z"/>
  <path class="cls-1" d="M277.47,524.01c.06-.03.12-.06.18-.1h0c-.06.03-.12.06-.18.1Z"/>
  <path class="cls-1" d="M419.72,289.54c2.99-5.54,6.1-11.02,9.17-16.53,2.94-5.27,6.1-10.41,9.11-15.64,1.57-2.73,3.22-5.42,4.91-8.07.49.82.99,1.65,1.48,2.48.55,1.03,1.08,2.07,1.54,3.15,1.04,2.5,3.88,3.73,6.46,3.39,1.65-2.56,3.37-5.07,5.12-7.56-.1-.44-.25-.87-.43-1.31-1.43-3.41-3.54-6.49-5.42-9.67-1.71-3.07-3.3-6.2-4.95-9.31-1.74-3.31-3.46-6.62-5.08-9.99-1.64-3.4-3.47-6.7-5.29-10.01-1.77-3.23-3.39-6.54-4.98-9.86-1.41-2.95-2.8-5.92-4.19-8.89-1.36-2.92-2.62-5.88-4.08-8.74-3.03-5.91-6.02-11.83-8.97-17.79-1.42-2.87-2.73-5.79-4.17-8.66-1.51-3-3.14-5.95-4.7-8.93-1.58-3.04-3.17-6.08-4.73-9.14-1.49-2.92-2.83-5.9-4.15-8.9-2.69-6.06-5.64-11.97-8.64-17.87-1.35-2.65-2.74-5.28-3.95-8-1.35-3.02-2.67-6.06-4.04-9.09-.47-1.03-.92-2.08-1.38-3.11,1.04.1,2.08-.01,3.03-.39,1.37-.54,2.54-1.56,3.24-3.03,1.4-2.95.19-6.97-2.93-8.29-3.39-1.42-6.89-2.52-10.42-3.5-1.22-2.65-2.31-5.36-3.51-8.02-.58-1.29-1.25-2.54-1.93-3.78-.95-1.75-2.1-3.72-4.01-4.54-1.55-.67-3.16-.88-4.79-.33-1.24.42-2.43,1.27-3.13,2.38-1.3,2.06-1.26,4.21-.75,6.47.19.87.42,1.73.63,2.59.06.26.18.5.27.74-3.64-1-7.26-2.05-10.86-3.18-3.03-.96-6.06-1.92-9.11-2.85-3.36-1.03-6.72-2.13-10.12-3.04-6.45-1.72-12.88-3.45-19.29-5.31-6.14-1.79-12.24-3.73-18.45-5.32-3.33-.85-6.66-1.73-10.02-2.44-2.92-.63-5.83-1.3-8.73-2.02-5.16-1.39-10.33-2.79-15.43-4.39-1.23-.39-2.46-.74-3.7-1.11-.02-.55-.08-1.1-.26-1.64-1.06-3.27-4.59-4.97-7.83-4-1.35.4-2.65.93-3.97,1.42-.41.15-.82.29-1.23.44-4.36-1.17-8.73-2.3-13.04-3.66-2.45-.77-4.88-1.62-7.33-2.4-2.1-.67-4.18-1.36-6.24-2.14-1.7-.73-3.4-1.62-5.3-1.44-2.45.23-4.59,1.91-5.35,4.27-.76,2.32-.04,5.1,1.9,6.66.49.39,1.01.75,1.52,1.11.85.61,1.82.92,2.81,1,.8.33,1.61.65,2.43.93,2.9,1,5.86,1.88,8.77,2.86.08.03.15.05.23.08-2.63.92-5.26,1.83-7.88,2.79-4.21,1.53-8.28,3.42-12.41,5.13-3.05,1.2-6.1,2.4-9.14,3.6-3.7,1.43-7.4,2.84-11.08,4.29-3.38,1.33-6.69,2.84-10.03,4.26-3.96,1.51-7.96,2.93-11.89,4.51-3.85,1.55-7.71,3.08-11.56,4.62.18-.07.35-.14.53-.21-2.91,1.15-5.83,2.27-8.79,3.3-2.68.93-5.42,1.68-8.1,2.63-1.25.45-2.49.91-3.73,1.38.04-2.22-1-4.37-3.13-5.54-2.85-1.57-6.97-.59-8.44,2.46-1.3,2.68-2.41,5.44-3.48,8.22-2.22.73-4.43,1.46-6.68,2.08-2.9.81-5.82,1.58-8.57,2.79-1.3.58-2.59,1.18-3.87,1.81-1.41.7-3,1.34-4.15,2.43-1.71,1.61-2.6,3.78-2.18,6.13.07.39.19.77.3,1.15.89,3.27,4.71,5,7.82,4,1.34-.43,2.39-1.25,3.11-2.29,1.62-.82,3.28-1.58,4.96-2.27,1.21-.43,2.44-.79,3.67-1.15-2.25,5.76-4.53,11.51-6.92,17.21-5.07,12.09-10.38,24.08-15.3,36.24-2.58,6.38-5.26,12.71-8.03,19.01-2.63,5.98-5.32,11.93-7.86,17.95-2.51,5.91-4.94,11.85-7.16,17.87-2.34,6.37-4.54,12.79-6.93,19.14-1.12,3-2.39,5.95-3.59,8.93-1.23,3.05-2.48,6.09-3.77,9.12-1.21,2.82-2.4,5.66-3.51,8.53-.54,1.41-1.11,2.81-1.68,4.2-.7,1.7-1.18,3.36-.95,5.22.29,2.42,2.35,4.45,4.66,5.01,1.27.31,2.66.21,3.9-.28.67-.27,1.3-.65,1.83-1.14.71-.65,1.32-1.38,1.9-2.15.12-.16.21-.35.32-.52,2.44,3.92,4.93,7.81,7.41,11.7,3.13,4.92,6.24,9.83,9.53,14.64,3.6,5.27,7.32,10.44,10.96,15.68,3.39,4.87,6.56,9.89,9.76,14.89,3.42,5.36,6.75,10.77,10.22,16.1,3.69,5.65,7.57,11.15,11.37,16.72,3.95,5.81,7.82,11.67,11.57,17.61,3.55,5.62,7.11,11.24,10.73,16.81,3.59,5.53,7.47,10.87,11.2,16.29,3.58,5.2,6.95,10.53,10.34,15.86,3.54,5.58,6.93,11.28,10.62,16.77,1.78,2.66,3.5,5.37,5.38,7.97,1.77,2.45,3.65,4.8,5.55,7.14,1.07,1.36,2.05,2.76,3.02,4.18-.18.74-.25,1.51-.15,2.3.33,2.82.7,5.63.94,8.46.35,5.52.75,11.04,1.05,16.56.33,6.04.34,12.07.37,18.1.05,7.82.57,15.62,1.07,23.42-2.72-.76-5.81.55-7.15,3.08-1.62,3.05-.37,6.74,2.57,8.4,6.68,3.77,13.5,7.3,20.09,11.23,4.07,2.54,8.07,5.2,12.1,7.8.28.18.55.36.83.54-.16.46-.29.93-.34,1.42-.32,3.24,2.19,6.64,5.57,6.8,2.33.11,4.65.26,6.97.45,2.54.21,5.1.16,7.66.18,2.27.08,4.53.16,6.8.22,1.96.07,3.93.18,5.9.18,1.92,0,3.86-.02,5.78.04,3.84.12,7.71.33,11.55.25,2.02-.04,4.04-.13,6.06-.1,2.02.03,4.05.09,6.06.11,3.86.05,7.71.03,11.56.08,3.85.14,7.7.26,11.55.37,2.33.08,4.66.11,6.98.17.02,0,.04,0,.07,0,.14,0,.29,0,.43,0,0,0,0,0,0,0,0,0,0,0,.01,0,0,0,0,0-.01,0,.88,0,1.74-.14,2.54-.46.58-.23,1.14-.55,1.65-.98,1.23-1.03,2.03-2.54,2.19-4.14.11-1.1-.13-2.2-.59-3.21,2.24-2.24,4.45-4.51,6.7-6.73,3.05-2.82,6.28-5.44,9.31-8.29,1.12-1.05,2.21-2.13,3.3-3.21.37,0,.74-.01,1.11,0,.11,0,.23.01.34.02,1.01.05,1.99-.11,2.88-.46,2.09-.82,3.68-2.67,3.92-5.11.08-.81-.02-1.63-.26-2.4,2.09-2.4,1.64-6.35-.64-8.45-.73-.67-1.63-1.13-2.58-1.39.11-2.51.21-5.02.33-7.53.15-3.29.09-6.58.01-9.87-.13-6.19-.34-12.39-.55-18.58-.1-3.21-.22-6.42-.34-9.63-.11-3.01-.05-6.03,0-9.04.05-3.06.19-6.11.26-9.16.03-1.32.1-2.64.12-3.95.36-.85.73-1.7,1.09-2.55,1.22-2.86,2.55-5.66,3.84-8.49,1.29-2.84,2.54-5.7,3.93-8.5,1.27-2.58,2.58-5.14,3.89-7.7,0,.01-.01.03-.02.04,4.93-9.57,10.23-18.94,15.64-28.23,5.33-9.16,10.35-18.51,15.47-27.78,3.07-5.56,5.92-11.24,8.94-16.82,3.09-5.72,6.13-11.46,9.35-17.11,6.23-10.93,12.78-21.66,18.98-32.6,3.14-5.52,6.27-11.06,9.29-16.66ZM434.08,240.05c-2.57-.93-5.13-1.86-7.7-2.79-.4-.14-.79-.31-1.18-.45.53-.4,1.04-.83,1.52-1.28.74-.69,1.46-1.39,2.17-2.1,1.18-1.18,2.34-2.37,3.51-3.56,1.03,2.04,2.09,4.06,3.16,6.09.2.37.39.75.58,1.12-.71.98-1.39,1.98-2.06,2.98ZM416.21,225.8c3.28-2.76,6.62-5.43,9.98-8.07.17.31.32.62.48.92.2.37.38.76.58,1.14-.16.09-.32.16-.46.28-2.43,2.1-4.83,4.24-7.17,6.43-1.92,1.79-3.9,3.52-5.88,5.24-.86-.43-1.73-.86-2.59-1.29,1.64-1.61,3.33-3.14,5.06-4.65ZM406.73,228.21c-1.27-.65-2.55-1.3-3.83-1.94-.61-.31-1.24-.61-1.85-.91.83-.72,1.65-1.44,2.47-2.17,1.32-1.19,2.64-2.39,3.95-3.6,1.01-.93,2.05-1.81,3.09-2.71,2.58-2.09,5.15-4.19,7.85-6.14,1.01-.73,2.05-1.43,3.07-2.15.82,1.65,1.67,3.29,2.52,4.93-2.93,2.29-5.86,4.59-8.71,6.99-1.96,1.64-3.9,3.3-5.77,5.04-.94.87-1.86,1.77-2.78,2.66ZM422.16,230.5c2.38-2.22,4.79-4.38,7.24-6.52.28.56.58,1.12.86,1.68-.28.11-.55.28-.77.5-2.17,2.22-4.31,4.5-6.63,6.57-.37.31-.75.59-1.15.87-.21.13-.42.25-.63.36-.24.1-.48.2-.72.3-.21.08-.38.23-.55.36-.5-.22-.99-.45-1.49-.68,1.29-1.14,2.58-2.27,3.84-3.45ZM418.14,201.72c.41.88.85,1.75,1.27,2.63-1.27.89-2.56,1.76-3.81,2.67-4.05,2.93-7.97,6.09-11.65,9.47-2.03,1.88-4.08,3.72-6.16,5.54-.45.39-.89.79-1.34,1.19-.36-.15-.71-.33-1.07-.48-1.21-.5-2.43-.97-3.65-1.45.79-.67,1.58-1.33,2.36-2,1.85-1.55,3.73-3.06,5.55-4.64.07-.06.14-.12.22-.18-.01,0-.02.02-.03.03.05-.04.09-.08.14-.12.05-.04.1-.08.15-.12.11-.09.21-.18.31-.28.1-.07.19-.15.28-.23.22-.16.44-.36.64-.55.02-.01.03-.03.05-.04.01-.01.03-.03.04-.04.07-.06.13-.12.2-.17.32-.23.61-.52.91-.77-.08.06-.16.13-.24.2,2.41-2.05,4.79-4.14,7.13-6.26,2.38-2.16,4.71-4.37,7.13-6.49.15-.12.29-.23.44-.35.38.82.75,1.65,1.14,2.47ZM413.85,192.43c.38.82.76,1.64,1.14,2.46-.44.36-.9.71-1.34,1.08-1.64,1.35-3.18,2.82-4.72,4.26-3.12,2.92-6.33,5.74-9.56,8.52-.05.04-.1.08-.15.13.04-.03.07-.06.11-.09.01-.01.03-.03.04-.04.03-.02.05-.04.08-.07,0,0,0,0,0,0,.04-.03.07-.06.11-.09-.05.04-.1.08-.15.13-.19.17-.39.33-.59.5-.18.15-.37.3-.54.47-.16.14-.32.28-.48.41-.02.01-.04.03-.06.05-.06.05-.12.1-.18.16-.08.06-.16.12-.23.19,0,0,0,0-.01.01-.05.04-.09.08-.14.12.05-.04.09-.07.13-.11,0,0,0,0-.01.01-.04.04-.09.08-.13.11-.18.13-.35.29-.52.44-2.52,2.08-5.04,4.18-7.51,6.33-.79.65-1.59,1.26-2.4,1.86-1.66-.67-3.29-1.38-4.91-2.11.71-.53,1.43-1.05,2.11-1.62,2.52-2.08,4.96-4.24,7.43-6.37,3.73-3.01,7.5-5.97,11.27-8.92,1.78-1.4,3.57-2.8,5.31-4.25,1.83-1.52,3.62-3.09,5.38-4.68.17.36.36.72.53,1.09ZM409.55,183.76c.61,1.19,1.22,2.38,1.83,3.58-.42.09-.83.25-1.16.56-1.33,1.2-2.69,2.39-4.05,3.57-2.98,2.46-6.02,4.84-9.06,7.23-1.52,1.2-3.04,2.4-4.56,3.6-1.44,1.14-2.91,2.26-4.3,3.46.08-.07.16-.13.23-.2-1.83,1.57-3.65,3.15-5.47,4.74-1.92,1.59-3.85,3.17-5.9,4.59-.64-.33-1.29-.65-1.93-.99-.81-.43-1.63-.85-2.45-1.29.61-.44,1.21-.89,1.8-1.35,2.03-1.57,4.07-3.12,6.07-4.72,2.03-1.61,4.01-3.27,5.99-4.95,3.78-3.23,7.49-6.54,11.22-9.81-.08.07-.15.13-.23.2,1.75-1.46,3.51-2.91,5.27-4.36,1.66-1.36,3.26-2.8,4.85-4.24.58-.53.74-1.31.62-2.05.41.81.82,1.63,1.23,2.45ZM407.66,180.02c-.91-.87-2.3-.82-3.22,0-1.03.94-2.07,1.87-3.12,2.79-2.93,2.46-5.9,4.85-8.78,7.37-2.66,2.33-5.31,4.68-7.99,7,.07-.07.15-.13.23-.2-2.67,2.29-5.34,4.56-8.12,6.71-2.74,2.12-5.46,4.28-8.31,6.25-.13.08-.28.15-.41.24-.17-.08-.34-.17-.52-.25-.88-.42-1.79-.8-2.69-1.19-.49-.21-1-.39-1.49-.59.96-.88,1.94-1.76,2.93-2.61.11-.09.22-.18.32-.28,0,0,0,0,.01,0,.1-.07.19-.15.28-.24.32-.28.65-.55.97-.83-.08.06-.16.13-.23.19,1.48-1.27,2.95-2.56,4.42-3.85-.08.06-.16.13-.24.2,3.62-3.1,7.3-6.12,10.93-9.21,1.91-1.63,3.84-3.23,5.73-4.87.89-.77,1.77-1.54,2.61-2.36.94-.93,1.87-1.88,2.8-2.82,1.77-1.77,3.59-3.49,5.44-5.18,1.51-1.38,2.98-2.82,4.49-4.2,1.3,2.65,2.62,5.29,3.95,7.93ZM400.84,166.21c.24.51.5,1.02.75,1.53-1.49,1.26-2.87,2.65-4.29,3.98-1.4,1.3-2.84,2.57-4.22,3.9-1.5,1.44-2.93,2.92-4.41,4.38-1.44,1.43-2.94,2.78-4.48,4.11.08-.06.16-.13.24-.2-3.33,2.83-6.66,5.67-10.03,8.46-1.72,1.43-3.44,2.86-5.14,4.31-1.51,1.29-2.98,2.61-4.48,3.91.02-.02.04-.03.05-.05-.39.33-.78.67-1.16,1-.23.18-.45.38-.67.57.08-.06.16-.13.24-.2-1.12.95-2.21,1.93-3.29,2.92-.51.46-.99.95-1.47,1.43-1.6-.61-3.2-1.22-4.79-1.88.79-.64,1.58-1.27,2.36-1.93,1.29-1.09,2.56-2.19,3.86-3.27,2.66-2.22,5.29-4.47,7.91-6.74,0,0-.02.01-.03.02,3.14-2.68,6.31-5.32,9.54-7.89,4.04-3.21,8.12-6.37,12.15-9.6,1.91-1.53,3.83-3.04,5.73-4.59,1.84-1.5,3.62-3.05,5.41-4.61.07.14.14.28.21.42ZM398.47,161.52c-1.01.86-2.01,1.74-3.01,2.61-3.16,2.69-6.42,5.26-9.67,7.85-3.9,3.13-7.9,6.16-11.78,9.31-1.99,1.6-3.99,3.19-5.94,4.84-2.06,1.76-4.11,3.52-6.16,5.3.08-.06.16-.13.24-.2-2.31,1.95-4.63,3.89-6.94,5.84-.8.68-1.6,1.35-2.4,2.02.13-.99.26-1.99.36-2.99.33-.23.64-.48.94-.76.49-.44.98-.88,1.46-1.32.99-.9,2-1.78,3.01-2.66,1.86-1.59,3.72-3.17,5.54-4.8,1.79-1.6,3.58-3.19,5.39-4.77,3.68-3.19,7.25-6.49,10.93-9.68.93-.8,1.86-1.59,2.79-2.39-.07.07-.15.13-.23.2.88-.76,1.76-1.51,2.64-2.27-.08.07-.16.13-.23.2,1.55-1.31,3.09-2.61,4.66-3.88,1.62-1.32,3.25-2.62,4.83-3.98.32-.27.63-.53.94-.8-.08.06-.16.13-.24.2.42-.35.82-.72,1.23-1.08.55,1.06,1.07,2.13,1.61,3.2ZM360.58,177.4c2.5-2.35,5.06-4.62,7.62-6.91,3.83-3.42,7.62-6.91,11.31-10.49,1.79-1.73,3.54-3.5,5.38-5.18,1.82-1.68,3.67-3.33,5.55-4.95.44-.38.89-.76,1.34-1.14.02-.02.03-.04.04-.05.94,1.8,1.88,3.59,2.83,5.38-.59.52-1.17,1.05-1.77,1.56-.3.26-.59.51-.89.77-.01.01-.03.02-.04.03-.01,0-.02.02-.03.03,0,0,.01-.01.02-.02-3.17,2.65-6.42,5.21-9.56,7.91.07-.07.15-.13.23-.2-.87.75-1.74,1.49-2.62,2.24-3.81,3.25-7.54,6.58-11.26,9.93-1.87,1.68-3.8,3.31-5.69,4.98-1.7,1.49-3.37,3-5.07,4.49-1.36,1.16-2.72,2.33-4.07,3.5-.04.04-.08.08-.13.11.04-.46.08-.92.12-1.38.15-1.66.33-3.31.51-4.97.78-.74,1.6-1.45,2.39-2.17,1.28-1.15,2.54-2.31,3.79-3.48ZM355.26,175.98c.16-1.26.32-2.51.47-3.77.1-.82.17-1.65.26-2.47.12-.12.24-.24.33-.39,1.58-1.7,3.25-3.32,4.93-4.91,1.69-1.58,3.46-3.1,5.17-4.67,3.82-3.52,7.73-6.95,11.49-10.52,1.86-1.76,3.65-3.6,5.49-5.37,1.34-1.29,2.71-2.55,4.08-3.81.72,1.53,1.46,3.05,2.23,4.56-.27.07-.53.19-.75.37-3,2.5-5.9,5.09-8.72,7.78-2.65,2.53-5.25,5.11-7.94,7.61-1.86,1.73-3.69,3.47-5.59,5.16-1.88,1.68-3.79,3.34-5.65,5.04-1.95,1.78-3.88,3.59-5.82,5.39ZM385.47,135.59c-2.14,1.96-4.27,3.94-6.36,5.95-2.07,1.98-4.08,4.02-6.16,5.99-1.77,1.68-3.63,3.26-5.42,4.91-1.83,1.67-3.65,3.35-5.48,5.01-1.79,1.62-3.64,3.2-5.36,4.89.04-.52.09-1.04.13-1.56.08-.98.19-1.94.29-2.91.71-.36,1.35-.91,1.96-1.41,2-1.63,3.86-3.41,5.64-5.28,1.77-1.84,3.56-3.65,5.42-5.4,3.59-3.38,7.14-6.79,10.86-10.01,1.1-.93,2.22-1.83,3.34-2.73.38.85.77,1.7,1.15,2.55ZM382.28,128.69c-1.18.95-2.36,1.9-3.53,2.88-3.79,3.18-7.34,6.61-10.94,9.99-1.95,1.84-3.87,3.69-5.73,5.64-1.34,1.4-2.73,2.76-4.15,4.07.03-.2.06-.41.09-.61-.01.1-.03.2-.04.3.24-1.54.53-3.08.73-4.62.07-.5.12-1.01.2-1.51.28-.25.57-.5.83-.77.8-.82,1.56-1.66,2.33-2.52,1.28-1.45,2.52-2.93,3.78-4.38,1.39-1.52,2.79-3.05,4.19-4.57,1.46-1.57,2.89-3.15,4.43-4.64,1.68-1.62,3.38-3.21,5.08-4.81.92,1.85,1.83,3.72,2.72,5.58ZM377.38,118.75c-1.46,1.36-2.92,2.72-4.36,4.1-1.9,1.84-3.76,3.71-5.55,5.65-1.74,1.88-3.52,3.74-5.2,5.68-.84.96-1.67,1.92-2.5,2.88.11-1.1.2-2.19.32-3.29.11-.12.22-.22.33-.35.31-.35.61-.72.92-1.07,2.1-2.33,4.37-4.51,6.31-6.98,1.08-1.37,2.13-2.77,3.2-4.16.89-1.16,1.84-2.26,2.82-3.35.7-.75,1.44-1.45,2.16-2.18.52,1.02,1.04,2.04,1.56,3.07ZM373.62,111.24c-1.84,1.81-3.65,3.66-5.29,5.65-1.06,1.29-2.08,2.63-3.08,3.97-.88,1.17-1.82,2.29-2.78,3.41-.38.41-.75.83-1.13,1.24.15-.86.31-1.73.46-2.59.08-.07.16-.13.23-.22,1.64-1.96,3.26-3.93,4.77-5.99,1.51-2.04,3.06-4.03,4.73-5.94-.07.07-.14.15-.21.22.47-.53.96-1.04,1.43-1.57.28.61.56,1.21.85,1.81ZM366.2,94.67c.99,2.23,1.97,4.46,2.96,6.69.51,1.15,1.01,2.3,1.51,3.45-.74.8-1.48,1.6-2.2,2.41-1.2,1.35-2.41,2.71-3.5,4.16-.62.82-1.24,1.65-1.85,2.48.18-1.66.36-3.33.57-4.99.33-2.05.72-4.1,1.12-6.14.42-2.11.87-4.23,1.18-6.37.08-.56.14-1.13.22-1.7ZM361.62,88.62c.21,0,.42,0,.63,0,0,.09-.02.17-.02.26-.16,1.69-.36,3.37-.59,5.05-.6,3.99-1.45,7.92-2.19,11.89-.71,3.83-.99,7.73-1.46,11.59-.33,2.15-.69,4.29-1.08,6.43-.48,2.66-.9,5.32-1.3,8-.17,1.12-.25,2.24-.37,3.37-.11,1.04-.22,2.09-.31,3.13-.11,1.2-.17,2.41-.33,3.61l-.06.46c-.55.64-.75,1.55-.43,2.38.02.06.07.09.09.14-.05.35-.09.7-.14,1.05,0-.01,0-.02,0-.03-.59,3.68-1.19,7.35-1.58,11.06-.38,3.73-.64,7.47-.98,11.2-.3,3.25-.8,6.48-1.2,9.71-.12,1-.24,1.99-.36,2.99-.04.05-.09.09-.12.14-.57.77-.64,1.79-.19,2.58-.19,1.71-.36,3.43-.5,5.15-.29,3.56-.63,7.1-1.06,10.64-.12.76-.24,1.52-.36,2.27-1.58-.79-3.17-1.58-4.75-2.38-4.94-2.47-9.94-4.83-15.03-6.96-2.53-1.06-5.1-2.08-7.61-3.21-2.53-1.14-5.03-2.32-7.54-3.5-1.36-.68-2.72-1.35-4.07-2.04-1.42-.73-2.84-1.48-4.27-2.18-1.43-.7-2.86-1.39-4.29-2.08-1.36-.64-2.77-1.19-4.15-1.79-1.36-.59-2.79-1.06-4.17-1.6-1.41-.56-2.85-1.05-4.24-1.66-1.39-.62-2.78-1.23-4.18-1.84-1.13-.56-2.26-1.12-3.39-1.68-2.37-1.18-4.71-2.42-7.08-3.59-2.33-1.15-4.69-2.23-7.08-3.22-2.6-1.07-5.23-2.08-7.8-3.21-1.29-.57-2.6-1.1-3.88-1.71-1.25-.6-2.51-1.2-3.77-1.8-2.88-1.43-5.77-2.84-8.65-4.27,1.89-1.12,3.78-2.26,5.69-3.35,3.1-1.79,6.31-3.37,9.45-5.08,1.82-.99,3.63-1.97,5.41-3.02,1.79-1.05,3.55-2.13,5.32-3.23,1.64-1.02,3.31-2.03,4.97-3.04,1.43-.87,2.93-1.63,4.39-2.43,2.08-1.04,4.16-2.08,6.26-3.09,2.03-.99,4.03-2.02,6.04-3.05,1.18-.61,2.31-1.32,3.45-1.98.8-.47,1.59-.95,2.38-1.44,1.9-1.16,3.8-2.28,5.73-3.4-.09.05-.19.09-.28.14,1.3-.67,2.57-1.39,3.89-2.01,1.34-.64,2.68-1.27,4.03-1.91,1.29-.62,2.61-1.19,3.88-1.85,1.29-.66,2.61-1.28,3.87-1.99,2.39-1.34,4.77-2.71,7.1-4.16,2.45-1.53,4.93-3.01,7.44-4.43,5.22-2.71,10.55-5.18,15.73-7.97,2.64-1.42,5.27-2.87,7.85-4.4,1.46-.87,2.92-1.72,4.4-2.56.96-.03,1.93-.09,2.89-.11ZM344.51,227.06c-.17,1.07-.33,2.14-.49,3.21-.01,0-.02,0-.03-.01-.54-.29-1.06-.61-1.58-.94-.88-.6-1.71-1.26-2.52-1.95-.89-.82-1.74-1.67-2.57-2.56-1.05-1.24-2-2.55-2.92-3.9-.78-1.21-1.52-2.44-2.2-3.72-.56-1.16-1.06-2.33-1.51-3.53-.3-.93-.56-1.86-.8-2.81-.19-1.02-.34-2.04-.43-3.08-.03-1.07-.02-2.13.03-3.19.16-2.06.42-4.11.74-6.15.22.1.44.18.66.28,2.58,1.17,5.14,2.37,7.69,3.59-.02,0-.03-.02-.05-.02.03.02.07.03.1.05.06.03.12.06.18.08-.03-.01-.05-.02-.08-.04,2.75,1.38,5.49,2.75,8.26,4.07-.32,2.13-.61,4.27-.81,6.41-.25,2.63-.51,5.25-.79,7.87-.23,2.22-.6,4.41-.93,6.62.01-.1.03-.2.05-.29ZM344.94,82.12c.42.12.84.26,1.26.38,2.16.61,4.32,1.18,6.48,1.76-3.6.13-7.21.23-10.81.35,1-.85,2.04-1.66,3.06-2.49ZM336.68,79.66s.01-.02.02-.03c.95.3,1.9.57,2.85.86-.21.18-.43.34-.63.52-1.5,1.27-2.99,2.57-4.49,3.85-.98.03-1.95.07-2.93.1-.16,0-.32.01-.48.02.78-.83,1.53-1.68,2.35-2.49,1.08-.97,2.19-1.9,3.31-2.83ZM331.46,77.99c-.38.33-.78.65-1.16.99-1.06.95-2.04,1.99-2.99,3.05-.96,1.06-1.9,2.13-2.86,3.17-.25,0-.5.02-.75.03-1.92.03-3.85.02-5.77,0,1.87-1.96,3.84-3.82,5.84-5.65,1.17-1.01,2.36-1.96,3.6-2.88,1.37.42,2.73.85,4.09,1.28ZM313.6,72.82c2.77.74,5.52,1.53,8.28,2.31-.98.83-1.95,1.65-2.89,2.52-1.34,1.24-2.68,2.49-3.97,3.8-.58.59-1.14,1.21-1.69,1.83-.51.58-1.03,1.18-1.45,1.84-.01.02-.02.05-.03.07-1.32-.02-2.65-.04-3.97-.06-.3,0-.6-.01-.9-.02.07,0,.14,0,.21,0-.57-.02-1.13-.03-1.7-.04,0,0,0,0,0,0,0,0-.01,0-.02,0-.03,0-.06,0-.1,0,.02,0,.03,0,.05,0-.3,0-.61-.02-.91-.02,0,0,.01,0,.02,0-.79-.02-1.58-.01-2.38-.03.17-.21.33-.43.5-.64,1.41-1.64,2.8-3.3,4.23-4.92,1.42-1.61,2.89-3.15,4.43-4.65.76-.67,1.53-1.31,2.29-1.96ZM307.97,71.3c.07.02.15.04.22.06-1.16,1.07-2.29,2.18-3.34,3.36-1.43,1.61-2.85,3.24-4.25,4.88-1.45,1.71-2.9,3.41-4.21,5.23-.02.03-.02.06-.04.09-.72,0-1.45-.03-2.17-.03-1.08,0-2.15.04-3.22.04.2-.23.41-.45.6-.68,1.04-1.18,2.04-2.39,3.05-3.59,2.01-2.38,4.21-4.6,6.47-6.74,1.31-1.18,2.62-2.34,3.95-3.49.98.28,1.96.58,2.94.85ZM294.86,69.87c.07-.06.13-.12.2-.18.07-.06.14-.12.21-.19,0,0,0,0,.01,0,.02-.02.05-.04.07-.07.13-.11.25-.23.38-.34.05-.05.11-.09.16-.14.1-.09.21-.19.31-.28-.08.07-.16.14-.24.21.14-.13.28-.25.42-.38-.05.04-.1.09-.14.13.21-.19.42-.38.64-.57.95.29,1.91.56,2.87.84-.54.48-1.09.96-1.63,1.44-1.62,1.47-3.15,3.02-4.64,4.61-1.33,1.41-2.56,2.9-3.82,4.38-.73.86-1.47,1.71-2.23,2.56-.61.7-1.24,1.41-1.91,2.07-.04.03-.08.06-.11.09.02-.02.05-.03.07-.05,0,0-.01.01-.02.02-.37.27-.65.64-.82,1.05-1.06.04-2.11.1-3.17.16.03-.04.07-.09.1-.13.85-1.05,1.69-2.1,2.54-3.14,1.55-1.91,3.13-3.8,4.69-5.7.86-1.01,1.72-2.01,2.62-2.99.96-1.04,1.97-2.02,2.99-3,.15-.14.3-.27.45-.41ZM285.82,64.88c1.12.3,2.25.58,3.37.9.82.24,1.64.49,2.46.73-.06.06-.13.11-.19.17.03-.03.07-.06.11-.09-.04.04-.09.08-.14.12-.02.02-.03.03-.05.05,0,0,0,0,0,0-.01.01-.03.03-.04.04-2.54,2.31-4.78,4.89-6.97,7.53-2.16,2.61-4.3,5.22-6.41,7.85-.58.69-1.14,1.38-1.79,2.01-.07.06-.15.12-.23.18-.06.04-.13.08-.19.11-.45.26-.74.68-.92,1.14-2.79.18-5.59.34-8.39.49.14-.18.29-.36.43-.54.67-.81,1.34-1.61,2.04-2.39,5.55-6.18,11.22-12.26,16.92-18.3ZM273.6,61.82c2.12.49,4.23.96,6.34,1.48.24.06.49.13.73.2-.05.06-.11.11-.16.17-3.57,3.78-7.09,7.6-10.59,11.45-1.6,1.77-3.27,3.49-4.81,5.31-1.56,1.85-3.19,3.69-4.55,5.71-.05.08-.07.17-.11.25-3.18.12-6.35.24-9.53.34.04-.04.07-.09.11-.13.96-1.17,1.91-2.37,2.86-3.55,1.7-2.14,3.41-4.27,5.13-6.39,1.74-2.04,3.46-4.1,5.32-6.03,1.1-1.13,2.19-2.26,3.31-3.36.95-.94,1.93-1.84,2.91-2.75-.01.01-.03.03-.04.04,1.02-.92,2.05-1.83,3.07-2.74ZM263.71,59.42c1.46.37,2.92.73,4.39,1.08-.45.41-.92.81-1.37,1.23-1.98,1.83-3.88,3.74-5.75,5.68-1.78,1.84-3.43,3.79-5.08,5.73-3.18,3.77-6.18,7.7-9.31,11.52-.39.45-.79.88-1.21,1.29-.31.08-.6.22-.85.44-.2.17-.38.36-.54.57-2.16.08-4.32.16-6.47.28,1.15-1.31,2.3-2.6,3.48-3.88,1.17-1.26,2.35-2.51,3.51-3.78,3.52-3.83,7.1-7.6,10.57-11.47,1.63-1.8,3.24-3.63,4.99-5.31,1.19-1.15,2.42-2.26,3.64-3.39ZM252.78,57.44c.29-.25.6-.49.9-.74,1.55.45,3.11.88,4.67,1.31-.68.63-1.36,1.27-2,1.94-2,2.07-3.91,4.21-5.85,6.32-3.41,3.71-6.82,7.41-10.25,11.08-1.77,1.89-3.56,3.77-5.26,5.71-.33.37-.63.76-.95,1.13-.29-.13-.61-.21-.95-.21-1.23,0-2.38,1.06-2.32,2.33.02.45.06.91.09,1.36-.09,0-.18.01-.26.02-1.26.09-2.53.2-3.79.3.3-.35.6-.69.9-1.04,1.7-1.97,3.34-3.97,4.95-6.01,3.11-3.93,6.22-7.87,9.36-11.78,3.46-4.05,6.96-8.02,10.79-11.73ZM242.73,53.36c1.91.58,3.82,1.17,5.72,1.76-.45.45-.9.91-1.34,1.37-.86.89-1.71,1.8-2.55,2.71-3.37,3.65-6.57,7.45-9.65,11.36-3.19,4.04-6.34,8.09-9.62,12.06-1,1.16-2,2.31-3,3.46-.54.62-1.08,1.25-1.62,1.87-.12.14-.26.28-.38.43-1.81.08-3.62.16-5.43.24-.86.03-1.71.06-2.57.1,1.63-2,3.25-4.01,4.9-5.99-.07.08-.13.16-.2.24.06-.08.13-.16.2-.24.5-.6,1-1.19,1.5-1.79-.07.08-.13.16-.2.24.46-.54.92-1.09,1.38-1.63,3.22-3.72,6.47-7.43,9.61-11.23,1.75-2.11,3.46-4.22,5.16-6.37,1.36-1.73,2.71-3.45,4.11-5.16,1.09-1.23,2.2-2.43,3.36-3.59.2.06.41.11.61.17ZM225.38,59c1.94-2.03,3.91-4.04,5.9-6.02,1.46-.54,2.92-1.09,4.39-1.61.45.12.9.26,1.36.38-.19.21-.4.4-.59.61-1.21,1.37-2.4,2.77-3.53,4.22-1.3,1.67-2.61,3.34-3.92,5-1.07,1.37-2.2,2.69-3.31,4.03.07-.08.13-.16.2-.24-1.59,1.88-3.18,3.77-4.78,5.64-1.58,1.84-3.2,3.63-4.75,5.49.05-.05.09-.11.14-.17-.06.07-.12.15-.18.22.02-.02.03-.04.05-.06-.52.62-1.04,1.24-1.56,1.86.07-.08.13-.16.2-.24-.49.59-.99,1.17-1.48,1.76.07-.08.13-.16.2-.24-2.31,2.75-4.54,5.57-6.84,8.33-.26.05-.52.13-.77.26-.32.17-.57.42-.77.7-1.84.04-3.68.08-5.51.14.56-.58,1.12-1.15,1.67-1.74.82-.89,1.57-1.86,2.36-2.78.96-1.12,1.88-2.26,2.82-3.4,3.15-3.8,6.16-7.72,9.28-11.56,3.06-3.6,6.16-7.17,9.44-10.6ZM207.43,63.72c.95-1.03,1.91-2.04,2.87-3.06.13-.05.26-.11.39-.17,2.79-1.01,5.61-1.91,8.4-2.91.65-.24,1.29-.5,1.94-.75-.32.35-.66.68-.98,1.02-1.67,1.8-3.32,3.61-4.91,5.48-1.87,2.2-3.72,4.42-5.54,6.68-1.43,1.77-2.81,3.58-4.24,5.35-1.64,2.02-3.29,4.03-4.94,6.02.02-.02.04-.05.05-.07-.89,1.05-1.76,2.13-2.7,3.15-.52.56-1.01,1.15-1.56,1.68-.52.51-1.04,1.01-1.56,1.51-.2.18-.41.36-.62.54-.53-.09-1.09,0-1.58.28-.39.23-.68.58-.88.96-2.43.11-4.86.19-7.28.33.92-.89,1.81-1.81,2.66-2.78,1.87-2.14,3.75-4.28,5.66-6.4,3.39-3.76,6.67-7.62,10.01-11.43,1.59-1.83,3.16-3.67,4.8-5.45ZM193.91,67.37c2.11-.82,4.21-1.67,6.32-2.51-3.23,3.69-6.42,7.42-9.67,11.09-1.66,1.87-3.34,3.73-4.99,5.59-1.69,1.91-3.33,3.86-5.19,5.6-.27.24-.55.47-.84.69-.28.04-.56.14-.82.29-.67.4-1.03,1.11-1.09,1.86-1.93.02-3.87.03-5.8,0,.78-.62,1.52-1.28,2.22-1.98,3.53-3.51,6.99-7.05,10.33-10.73,3.09-3.4,6.3-6.66,9.54-9.91ZM172.67,75.91c2.18-.93,4.35-1.88,6.51-2.82,1.41-.55,2.83-1.1,4.24-1.65-1.1,1.18-2.2,2.37-3.3,3.56-3.39,3.72-6.89,7.37-10.57,10.82-.51.42-1.03.83-1.57,1.23-.29.19-.58.37-.88.54-.15.05-.3.11-.44.18-.64.34-1.06,1.07-1.15,1.77-.01.12.02.22.03.33-2.68-.08-5.36-.16-8.03-.23.02-.02.04-.04.06-.06,1.18-1.17,2.37-2.33,3.57-3.49,2.23-2.14,4.5-4.24,6.78-6.33,1.54-1.35,3.11-2.63,4.74-3.86ZM165.55,89.88s0,0,0,0c0,0,0,0-.01,0,0,0,0,0,.01,0ZM143.82,87.22c5.17-2.04,10.33-4.1,15.48-6.17.22-.08.44-.17.66-.25-1.27,1.19-2.54,2.39-3.78,3.61-1.37,1.35-2.71,2.71-4.13,4.01-.07.06-.15.12-.23.18.03-.02.06-.04.09-.06-.33.25-.55.59-.72.95-2.26-.06-4.53-.1-6.79-.08-2.29.03-4.59.08-6.88.13,2.11-.74,4.22-1.49,6.3-2.31ZM120.36,95.5c.6-.07,1.2-.15,1.81-.21-.1,0-.2.02-.3.02,2.09-.18,4.19-.37,6.28-.55,2.65-.24,5.28-.42,7.93-.54,2.65-.12,5.32-.12,7.97-.15,5.08-.07,10.17.14,15.25.25-.01,0-.03,0-.04,0,.04,0,.08,0,.12,0,.06,0,.12,0,.18,0-.03,0-.05,0-.08,0,2.11.06,4.22.16,6.33.21.41.02.83.06,1.23.03.35.01.7.02,1.06.03,3.57.09,7.16.12,10.74.06,2.57-.05,5.13-.2,7.69-.34,2.67-.14,5.34-.26,8.01-.36,2.55-.09,5.09-.23,7.63-.29,2.64-.05,5.28-.09,7.92-.19,2.6-.08,5.19-.22,7.79-.32.52-.02,1.04-.06,1.56-.08.57.42,1.29.61,1.98.38.05-.02.1-.03.14-.05.15-.06.29-.13.43-.21,0,0,0,0,0,0,.07-.04.13-.08.19-.12.07-.04.12-.11.18-.16,1.09-.06,2.18-.09,3.26-.17.99-.08,1.98-.15,2.97-.22.12.3.29.59.54.84.56.53,1.39.73,2.15.57.04.83.07,1.66.12,2.49.07,1.27,1.01,2.33,2.33,2.33.28,0,.56-.06.83-.16.87-.34,1.56-1.19,1.5-2.17-.08-1.46-.15-2.93-.23-4.4,1.82-.11,3.63-.23,5.45-.32,2.82-.14,5.63-.2,8.45-.26,2.43-.06,4.85-.18,7.28-.27,2.74-.11,5.49-.2,8.23-.32,2.68-.12,5.36-.31,8.04-.48,5.09-.32,10.18-.69,15.28-.77,5.27-.07,10.53-.07,15.79.07,0,0,0,0,0,0,.01,0,.02,0,.03,0,.04,0,.07,0,.11,0,0,0-.02,0-.02,0,.29,0,.58.01.86.02-.1,0-.2,0-.3,0,.56.02,1.11.03,1.66.04-.02,0-.04,0-.07,0,.1,0,.2,0,.3,0h0c.19,0,.39,0,.58.01.05,0,.1,0,.15,0,.04,0,.08,0,.12,0,0,0,.02,0,.03,0,0,0-.01,0-.02,0,4.5.12,9,.17,13.5.14.11.42.28.83.6,1.13.7.67,1.64.79,2.45.46.3-.12.59-.3.84-.53.42-.39.81-.78,1.22-1.18,1.33-.05,2.66-.1,3.99-.14.39-.01.78-.03,1.17-.04.07.15.11.3.22.43.63.8,1.76,1.08,2.69.72.21-.08.4-.2.58-.34.38-.32.76-.64,1.14-.96.74-.03,1.49-.04,2.23-.07,2.65-.11,5.3-.22,7.95-.28.82-.02,1.64-.05,2.45-.07-2.31,1.31-4.64,2.59-7,3.83-2.43,1.24-4.86,2.44-7.31,3.64-2.24,1.1-4.5,2.19-6.67,3.42-2.53,1.43-5,2.93-7.46,4.47-2.14,1.33-4.32,2.57-6.52,3.8-1.14.58-2.27,1.17-3.42,1.75-1.18.61-2.4,1.15-3.6,1.71-1.21.57-2.41,1.14-3.62,1.72-1.04.5-2.06,1.04-3.09,1.57-2.08,1.08-4.11,2.25-6.11,3.47-2.29,1.41-4.6,2.77-6.93,4.12.01,0,.02-.01.04-.02-2.53,1.3-5.07,2.57-7.63,3.81-2.48,1.2-4.92,2.46-7.34,3.79-2.21,1.22-4.38,2.54-6.53,3.88-2.47,1.53-4.95,3.03-7.45,4.5-1.49.87-3.03,1.67-4.56,2.48-1.68.89-3.37,1.77-5.04,2.68-3.43,1.87-6.83,3.77-10.18,5.79-.56.34-1.13.68-1.69,1.02-.21-.1-.42-.21-.63-.31-2.48-1.18-4.97-2.33-7.49-3.42-2.55-1.1-5.08-2.22-7.61-3.36-1-.48-1.99-.98-2.99-1.46-2.3-1.12-4.55-2.36-6.79-3.59-1.16-.63-2.31-1.27-3.49-1.87-1.24-.63-2.47-1.31-3.74-1.87-1.29-.56-2.56-1.16-3.87-1.67-1.33-.51-2.67-1.02-4-1.54-1.32-.53-2.67-.99-3.96-1.57-1.28-.57-2.56-1.14-3.84-1.72.09.04.18.09.27.14-2.94-1.43-5.86-2.89-8.8-4.31-2.61-1.26-5.24-2.47-7.92-3.56-2.41-.98-4.85-1.88-7.29-2.79-5.05-1.89-10.05-3.89-14.95-6.17-2.27-1.11-4.52-2.27-6.78-3.39-1.27-.63-2.54-1.26-3.81-1.87-1.02-.49-2.05-.99-3.11-1.41-2.44-.94-4.91-1.8-7.36-2.68-2.31-.84-4.56-1.77-6.8-2.78-1.14-.56-2.28-1.14-3.41-1.73-.03-.02-.07-.03-.1-.05-.29-.43-.72-.73-1.2-.9,1.1-.36,2.2-.72,3.3-1.09ZM119.77,104.35c-.05-.33-.12-.66-.17-.98.27.13.53.27.81.4,2.03.92,4.09,1.76,6.19,2.52,2.13.77,4.28,1.49,6.39,2.31,1.94.75,3.82,1.63,5.7,2.54.01,0,.03.01.04.02-.01,0-.02-.01-.03-.02.06.03.12.06.18.09-.05-.02-.09-.04-.14-.06,2.12,1.06,4.21,2.17,6.34,3.21,2.55,1.24,5.1,2.45,7.7,3.55,2.58,1.09,5.17,2.14,7.78,3.13,2.51.95,5.04,1.89,7.55,2.85,2.51.96,4.95,2.03,7.4,3.13,4.46,2.17,8.88,4.43,13.42,6.46,2.11.94,4.27,1.78,6.42,2.61,1.18.46,2.37.88,3.53,1.38,1.22.53,2.44,1.05,3.65,1.59,1.18.6,2.37,1.2,3.55,1.8,1.23.62,2.43,1.31,3.64,1.98,1.14.62,2.28,1.23,3.43,1.83,2.3,1.22,4.64,2.38,7.01,3.45,2.48,1.12,4.98,2.18,7.46,3.28,1.44.64,2.86,1.32,4.29,1.98-1.31.79-2.61,1.59-3.92,2.37-3.07,1.83-6.22,3.49-9.37,5.17-.08.04-.15.08-.23.12,0,0,0,0,0,0,.01,0,.02-.01.03-.02-1.51.78-3.02,1.57-4.53,2.36.04-.02.08-.04.12-.06-2.95,1.53-5.83,3.19-8.7,4.87-1.39.81-2.76,1.64-4.14,2.46-1.34.8-2.72,1.53-4.09,2.3.05-.03.1-.05.15-.07-1.34.69-2.69,1.37-4.04,2.07-1.28.65-2.6,1.24-3.9,1.86-2.36,1.13-4.7,2.28-6.99,3.55-1.15.64-2.31,1.27-3.43,1.95-1.19.74-2.38,1.47-3.58,2.2-1.22.75-2.43,1.57-3.69,2.26-1.26.69-2.52,1.38-3.78,2.08-4.1,2.03-8.23,4.02-12.31,6.09-1.18.6-2.32,1.28-3.47,1.93-.85.47-1.69.97-2.54,1.47-1.99,1.18-4,2.33-6.02,3.49,0,0,.02,0,.02-.01-1.14.58-2.27,1.17-3.41,1.75-.74.38-1.49.71-2.25,1.06-.34-1.58-.67-3.15-.94-4.74-.02-.12-.04-.24-.06-.37.03-.27,0-.55-.06-.82-.02-.07-.07-.12-.1-.19-.57-3.39-1.09-6.78-1.63-10.18-.5-3.13-1.07-6.25-1.65-9.36.34-.08.67-.19,1.01-.26.1-.02.2-.05.29-.09,1.06-.42,1.64-1.69,1.33-2.77-.35-1.27-1.62-1.91-2.86-1.63-.21.05-.41.11-.62.16-.33-1.74-.69-3.47-1.06-5.19,1.7-.57,3.4-1.15,5.12-1.69.06-.02.12-.04.17-.06,1.11-.44,1.79-1.61,1.46-2.8-.33-1.19-1.66-2.01-2.87-1.63-1.64.51-3.28,1.03-4.92,1.56-.05-.22-.11-.44-.16-.67-.1-.43-.17-.9-.32-1.34-.09-.48-.25-.97-.37-1.43-.21-.8-.42-1.6-.62-2.4,1.15-.45,1.66-1.91,1.2-3.02-.41-.98-1.35-1.43-2.32-1.37-.18-.71-.37-1.42-.55-2.13-.5-2.13-.98-4.27-1.43-6.41-.23-1.14-.43-2.28-.65-3.41.59-.18,1.18-.37,1.77-.54,1.22-.35,1.97-1.63,1.63-2.87-.33-1.21-1.65-1.98-2.86-1.63-.45.13-.9.28-1.35.41-.57-3.47-1.01-6.97-1.4-10.47-.28-2.59-.53-5.2-.89-7.78-.36-2.57-.76-5.13-1.19-7.68-.42-2.51-.83-5.01-1.23-7.52ZM114.15,101.63c.09-.23.17-.45.26-.68.05.2.09.4.13.61.22,1.04.41,2.08.57,3.13.36,2.32.73,4.63,1.13,6.95.06.37.12.75.18,1.12-2.73.99-5.39,2.14-8.01,3.4,1.97-4.82,3.86-9.67,5.74-14.53ZM105.62,122.88c1.43-.82,2.89-1.61,4.37-2.36,2.36-1.1,4.76-2.13,7.19-3.07.04.27.09.55.13.82.12.89.22,1.77.33,2.66-4.99,2.43-9.7,5.37-14.59,7.99.86-2.02,1.72-4.03,2.57-6.05ZM95.54,146.67c.47-.25.92-.53,1.38-.79.59-.33,1.17-.67,1.76-.99,1.43-.77,2.85-1.52,4.28-2.28,2.57-1.36,5.09-2.81,7.66-4.17,1.33-.64,2.68-1.23,4.06-1.76.79-.26,1.59-.51,2.39-.73,1.22-.35,1.97-1.63,1.63-2.87-.34-1.21-1.64-1.98-2.87-1.62-2.16.62-4.26,1.36-6.3,2.34-1.95.94-3.82,2-5.71,3.05-1.78.98-3.58,1.92-5.38,2.88.6-1.42,1.2-2.84,1.8-4.26,1.08-.5,2.15-1.01,3.22-1.54,1.76-.87,3.48-1.81,5.19-2.8,3.15-1.83,6.33-3.6,9.56-5.29.33,3.11.67,6.21,1.11,9.3.19,1.37.42,2.74.65,4.1-.47.17-.94.32-1.41.49-2.48.93-4.93,1.92-7.37,2.92-2.32.95-4.59,2.05-6.86,3.14-2.34,1.12-4.64,2.33-6.94,3.52-1.3.68-2.58,1.38-3.86,2.08.66-1.58,1.33-3.16,1.99-4.73ZM90.76,158.05c.24-.12.48-.24.72-.36,2.49-1.25,4.95-2.55,7.4-3.88,2.27-1.22,4.58-2.37,6.89-3.52-.03.01-.06.03-.09.04.03-.01.06-.03.09-.04.06-.03.12-.06.18-.09-.06.03-.11.06-.16.08,2.79-1.32,5.58-2.64,8.44-3.82,2.18-.89,4.38-1.72,6.59-2.53.06.35.12.71.19,1.06.2,1.07.43,2.14.66,3.21-1.9.81-3.8,1.65-5.71,2.44-1.94.8-3.89,1.58-5.83,2.39-2.49,1.04-4.96,2.09-7.47,3.09-2.43.98-4.88,1.93-7.3,2.92-2.01.82-4,1.68-6.01,2.49.47-1.16.95-2.31,1.42-3.47ZM86.82,167.62c1.35-.57,2.69-1.14,4.05-1.68,1.88-.74,3.74-1.53,5.6-2.32,2.27-.96,4.57-1.84,6.86-2.75,2.28-.91,4.55-1.84,6.81-2.79,2.44-1.02,4.89-2.03,7.35-3.03,1.75-.71,3.48-1.47,5.22-2.22.13.53.25,1.06.38,1.58.13.51.26,1.01.39,1.52-2.57,1.02-5.13,2.08-7.67,3.17-1.77.75-3.52,1.54-5.27,2.33-1.68.77-3.35,1.57-5.05,2.29-2.38,1.01-4.77,1.97-7.15,2.96-2.42,1-4.83,2.04-7.26,3-2.06.81-4.13,1.62-6.18,2.46.64-1.5,1.28-3,1.91-4.51ZM82.22,178.34c2.58-1.14,5.2-2.19,7.82-3.23,3.49-1.39,6.95-2.85,10.42-4.26,2.39-.96,4.79-1.9,7.13-2.96,2.32-1.06,4.62-2.14,6.95-3.16,3.36-1.47,6.73-2.9,10.14-4.26.27,1.04.55,2.08.81,3.12,0-.02-.01-.05-.02-.07.02.1.05.19.07.28.07.54.26,1.09.38,1.6.06.23.11.47.17.7-.13.05-.26.09-.39.13-3.05,1.1-6.09,2.22-9.16,3.29,0,0-.01,0-.02,0-.23.08-.46.16-.69.24.02,0,.04-.02.06-.02l-.22.08c-.08.02-.15.05-.23.08-.19.07-.38.13-.56.2-.31.11-.64.2-.95.33-.22.07-.44.15-.66.23.05-.01.09-.03.14-.04-.05.02-.1.03-.15.05-.05.02-.09.03-.14.05.04-.01.07-.03.11-.04-.13.05-.27.09-.4.14.09-.03.19-.06.28-.09-2.2.76-4.38,1.57-6.55,2.39-4.81,1.82-9.6,3.69-14.38,5.6-2.39.95-4.82,1.83-7.23,2.74-1.64.62-3.28,1.23-4.92,1.84.73-1.65,1.45-3.3,2.18-4.95ZM77.49,189.06c.72-.22,1.44-.44,2.16-.67,2.24-.72,4.42-1.63,6.63-2.46,4.79-1.79,9.54-3.65,14.3-5.52,4.61-1.81,9.24-3.61,13.92-5.24.03-.01.07-.02.1-.03,0,0,.01,0,.02,0,0,0,0,0,0,0,.03-.01.07-.02.1-.03-.02,0-.04.01-.05.02.17-.06.35-.12.52-.18.34-.11.7-.21,1.03-.36.14-.05.28-.1.42-.15.1-.03.19-.07.29-.1.3-.07.59-.19.87-.3.07-.02.15-.05.22-.07-.03.01-.07.02-.1.04.07-.03.15-.05.22-.08.02,0,.04-.01.06-.02-.01,0-.03,0-.04.01,2.99-1.04,5.96-2.13,8.93-3.21.35,1.64.69,3.28,1.02,4.93-.78.23-1.56.46-2.34.69-2.47.73-4.93,1.46-7.39,2.2-5.01,1.49-10.01,3.07-15,4.64-4.68,1.47-9.36,2.97-13.95,4.68-4.55,1.69-9.05,3.48-13.62,5.1.56-1.29,1.14-2.58,1.7-3.86ZM73.35,198.68c3.39-1.17,6.77-2.32,10.12-3.61,3.91-1.52,7.84-2.97,11.79-4.39-.04.01-.08.03-.12.04.04-.01.09-.03.13-.04.05-.02.1-.04.15-.05-.04.02-.08.03-.12.04,3.05-1.01,6.1-2.03,9.16-2.99,5.04-1.58,10.08-3.17,15.13-4.68,2.46-.74,4.93-1.47,7.39-2.2.66-.19,1.31-.39,1.97-.58.1.57.22,1.13.32,1.7.26,1.48.48,2.96.73,4.45-.12.01-.24-.01-.36.02-2.08.48-4.13,1.08-6.16,1.72-9.68,3.07-19.38,6.09-29.08,9.12-5.01,1.57-10.02,3.13-15,4.79-2.38.79-4.77,1.56-7.15,2.33-.48.16-.96.29-1.44.44.82-2.04,1.67-4.07,2.52-6.1ZM68.09,211.7c.18-.47.37-.94.56-1.41,1.49-.36,2.96-.86,4.42-1.32,4.86-1.53,9.69-3.18,14.55-4.75,4.83-1.55,9.69-3.03,14.53-4.55,4.65-1.46,9.29-2.95,13.95-4.38,2.5-.77,5-1.55,7.49-2.34,2.36-.76,4.75-1.48,7.16-2.04.14.87.29,1.74.43,2.61.21,1.37.43,2.73.66,4.09-3.28.78-6.53,1.67-9.77,2.58-9.91,2.78-19.93,5.18-29.89,7.75-4.73,1.23-9.46,2.47-14.17,3.76-3.67.99-7.32,2.01-11,2.93.36-.97.71-1.96,1.08-2.93ZM65.06,219.91c1.18-.25,2.36-.52,3.54-.8,2.36-.57,4.69-1.3,7.04-1.93,5.06-1.37,10.11-2.75,15.18-4.06,4.82-1.24,9.64-2.48,14.46-3.71,5.05-1.28,10.11-2.55,15.14-3.92,4.07-1.11,8.14-2.26,12.24-3.26.2,1.07.39,2.15.61,3.22.05.22.1.43.15.65-3.68.97-7.37,1.93-11.05,2.89-3.97,1.03-7.94,2.04-11.88,3.16-4.94,1.42-9.84,2.94-14.75,4.48-4.75,1.49-9.51,2.93-14.29,4.36-5.01,1.51-10.03,3.01-15.06,4.48-1.23.36-2.46.72-3.69,1.07.78-2.21,1.56-4.42,2.35-6.63ZM60.74,231.98c1.55-.47,3.1-.93,4.66-1.37,3.59-1.03,7.17-2.12,10.75-3.18,4.83-1.42,9.65-2.88,14.47-4.35,4.86-1.48,9.69-3.05,14.56-4.51,2.72-.82,5.45-1.62,8.19-2.4.71-.2,1.43-.38,2.14-.57-2.53,1.27-5.06,2.54-7.61,3.75-2.97,1.42-5.93,2.85-8.86,4.34-4.08,2.07-8.03,4.36-12.02,6.58-.45-1.04-1.6-1.65-2.72-1.35-4.29,1.17-8.57,2.33-12.86,3.49-3.94,1.06-7.93,1.92-11.93,2.76.43-1.06.82-2.14,1.22-3.21ZM57.45,240.29c2-.35,3.99-.75,5.97-1.18,2.45-.53,4.9-1.08,7.32-1.69,1.6-.4,3.19-.85,4.78-1.3-.56.27-1.12.55-1.68.82-1.77.82-3.52,1.66-5.27,2.51-.66.32-1.31.68-1.96,1.04-.31.03-.63.05-.94.08-1.1.11-2.19.26-3.29.43-.93.14-1.87.31-2.79.53-1,.25-2,.51-2.99.79.27-.68.56-1.36.83-2.04ZM54.34,247.94c.21-.07.42-.13.63-.2-.24.15-.48.29-.72.43.03-.08.06-.16.09-.23ZM123.55,358.33c-3.65-5.59-7.45-11.1-11.28-16.57-3.83-5.47-7.43-11.09-11.01-16.71-3.52-5.53-6.98-11.09-10.56-16.59-3.73-5.71-7.65-11.28-11.58-16.85-3.65-5.16-7.27-10.39-10.63-15.76-3.31-5.31-6.76-10.54-10.07-15.85-1.31-2.17-2.6-4.38-3.99-6.51.58-.34,1.17-.67,1.75-1.02,1.66-1,3.3-2.04,4.93-3.1,1.56-1.01,3.13-2.02,4.7-3.01.73-.46,1.47-.89,2.22-1.31,1.68-.16,3.35-.3,5.03-.44.19-.02.38-.06.55-.13.96-.38,1.58-1.49,1.43-2.5-.02-.14-.09-.25-.13-.37,3.46-1.62,6.92-3.23,10.29-5.02,4.87-2.59,9.62-5.39,14.48-7.99,3.75-1.9,7.53-3.74,11.33-5.56,3.74-1.79,7.43-3.69,11.1-5.62-.03.02-.07.03-.1.05,2.87-1.49,5.74-3.01,8.67-4.36,1.31-.61,2.62-1.21,3.93-1.81,1.37,5.61,2.94,11.17,4.34,16.77.83,3.53,1.65,7.05,2.35,10.61.72,3.66,1.45,7.31,2.07,10.98.65,3.85,1.24,7.72,1.89,11.57.65,3.85,1.3,7.69,2.18,11.5.91,3.93,1.87,7.85,2.82,11.77.79,3.33,1.56,6.67,2.25,10.01.63,3.09,1.14,6.22,1.62,9.34,1.05,6.9,1.96,13.82,3,20.73.29,1.9.59,3.78.95,5.67.38,1.97.79,3.93,1.24,5.88.87,3.88,1.77,7.75,2.6,11.63.4,1.87.73,3.75,1.09,5.63.35,1.77.67,3.57.94,5.35.27,1.82.6,3.64.82,5.47.24,1.98.48,3.96.72,5.94.41,3.84.82,7.67,1.29,11.49.46,3.67,1.02,7.31,1.65,10.95.64,3.7,1.4,7.38,2.02,11.08.68,3.97,1.23,7.95,1.72,11.94.44,3.67.87,7.35,1.41,11.01.54,3.73,1.08,7.48,1.88,11.16,0,.02.01.05.02.07-1.34-1.95-2.65-3.92-3.97-5.89-2.94-4.39-5.67-8.91-8.47-13.38-2.87-4.6-5.77-9.19-8.74-13.73-2.76-4.23-5.68-8.38-8.57-12.51-1.84-2.63-3.74-5.24-5.49-7.93-1.83-2.82-3.64-5.66-5.45-8.49-3.75-5.86-7.43-11.76-11.23-17.58ZM193.57,472.06c-1.53,1.03-3.07,2.05-4.61,3.07-.03.02-.06.04-.09.06-.04-.64-.08-1.28-.12-1.92,1.19-.82,2.38-1.63,3.6-2.41,1.46-.92,2.91-1.87,4.41-2.73.02,0,.02-.03.04-.04.54.28,1.07.56,1.61.84-1.64,1.01-3.25,2.06-4.85,3.13ZM203.33,471.43c.36.18.73.35,1.09.52-2.45,1.19-4.86,2.47-7.15,3.92-1.59,1.02-3.18,2.05-4.78,3.07-.68.44-1.37.86-2.05,1.3-.4.26-.8.51-1.2.78,0-.15-.02-.3-.03-.46.48-.32.97-.65,1.45-.97,1.38-.91,2.76-1.81,4.13-2.73,2.8-1.88,5.58-3.8,8.54-5.43ZM190.95,466.22c-.85.54-1.7,1.09-2.55,1.64-.03-.42-.08-.83-.12-1.25.79-.56,1.38-1.26,1.81-2.04.64.34,1.28.66,1.92,1-.35.22-.71.43-1.06.65ZM189.67,487.92c-.03-.65-.08-1.31-.12-1.96.16-.01.33,0,.49-.04.08-.02.15-.05.23-.08.55-.21,1.05-.64,1.53-.94.51-.33,1.02-.66,1.54-.98,1.08-.68,2.16-1.37,3.24-2.06,2.29-1.47,4.58-2.92,6.95-4.27,1.97-1.04,3.95-2.04,6.01-2.91.09-.04.15-.11.23-.16.8.38,1.6.78,2.41,1.16-.49.21-1,.38-1.49.61-1.15.55-2.26,1.17-3.36,1.81-2.12,1.23-4.22,2.53-6.28,3.87-3.76,2.46-7.48,4.97-11.33,7.3-.02-.45-.02-.9-.05-1.36ZM189.88,497.1c0-.86-.02-1.72-.03-2.58.09-.03.18-.05.26-.08.94-.37,1.8-1.01,2.64-1.53.74-.46,1.47-.92,2.2-1.38,1.8-1.14,3.59-2.3,5.36-3.48,3.39-2.28,6.84-4.45,10.37-6.51.65-.34,1.28-.69,1.94-1,.73-.35,1.47-.66,2.22-.97,1.01-.37,2.01-.73,3.01-1.09,1.07.53,2.13,1.07,3.19,1.61-1.07.64-2.15,1.28-3.23,1.89-3.12,1.74-6.23,3.49-9.29,5.33-2.28,1.38-4.54,2.77-6.8,4.17-2,1.24-4.01,2.49-6.06,3.65-1.93,1.08-3.86,2.17-5.77,3.28,0-.43-.01-.86-.02-1.29ZM189.95,503.71c.59-.34,1.18-.66,1.76-1,1.3-.75,2.59-1.49,3.9-2.23,2.56-1.44,5.1-2.91,7.61-4.45,4.14-2.55,8.25-5.17,12.49-7.56,2.22-1.25,4.47-2.46,6.67-3.76,1.21-.72,2.44-1.42,3.66-2.13,1.89.97,3.81,1.89,5.71,2.84-2.43,1.12-4.83,2.32-7.19,3.6-2.95,1.59-5.92,3.14-8.88,4.7-4.56,2.4-9.17,4.74-13.62,7.34-4.01,2.34-7.99,4.74-12.02,7.04-.04-1.47-.06-2.93-.09-4.4ZM190.42,516.9c-.08-1.19-.1-2.38-.15-3.57.34-.19.68-.37,1.02-.55-.09.05-.18.1-.27.14,2.86-1.54,5.62-3.26,8.41-4.9,2.88-1.69,5.78-3.37,8.69-5.01,4.51-2.42,9.04-4.77,13.55-7.16,4.57-2.43,9.07-4.97,13.83-7.03.47-.2.8-.58,1.03-1.02.08.04.16.08.25.12-.03-.01-.06-.03-.09-.04,1.52.73,3.03,1.45,4.54,2.17-.09-.04-.18-.09-.27-.13.79.38,1.59.76,2.39,1.13-.02,0-.03-.02-.05-.02.31.15.63.3.94.44-2.5,1.24-5.01,2.45-7.55,3.61-3.74,1.72-7.48,3.42-11.22,5.13-4.64,2.12-9.29,4.25-13.91,6.42-2.29,1.08-4.58,2.14-6.85,3.25-2.33,1.13-4.68,2.24-6.94,3.47-1.73.93-3.45,1.87-5.15,2.83-.73.41-1.45.82-2.17,1.23-.01-.18-.02-.36-.03-.53ZM191.01,527.57c-.08-1.63-.19-3.26-.27-4.89.98-.62,2-1.2,3.02-1.78,1.21-.68,2.41-1.38,3.63-2.04.88-.47,1.75-.94,2.62-1.41-.03.02-.06.03-.09.05,7.69-3.94,15.54-7.56,23.39-11.15,4.56-2.09,9.11-4.17,13.67-6.26,4.24-1.94,8.46-3.92,12.58-6.1.05.03.11.05.16.08,1.76.85,3.5,1.75,5.24,2.62-.28.12-.57.23-.85.36-1.77.8-3.53,1.61-5.28,2.44-3.52,1.67-7.06,3.31-10.56,5.02-4.54,2.2-9.11,4.36-13.67,6.54-4.8,2.3-9.57,4.66-14.35,7.01-4.39,2.16-8.76,4.34-13.13,6.52-2.03,1.02-4.08,1.99-6.11,3ZM198.25,529.22c2.65-1.33,5.3-2.64,7.95-3.96,8.98-4.46,17.98-8.86,27.03-13.18,4.63-2.21,9.25-4.44,13.89-6.63,2.33-1.1,4.66-2.24,7.01-3.3,2.11-.95,4.25-1.82,6.41-2.65,2.18,1.11,4.36,2.22,6.53,3.34-.08.02-.16.02-.24.05-3.94,1.64-7.81,3.45-11.64,5.29-3.53,1.7-7.04,3.47-10.49,5.33,0,0,0,0-.01,0-.08.04-.16.09-.24.13.04-.02.08-.04.12-.06-.13.07-.25.13-.38.2-.13.07-.26.14-.39.21-.05.03-.1.05-.14.08,0,0,0,0-.01,0-.09.04-.18.09-.27.15-.07.04-.14.08-.21.11-.37.19-.78.37-1.14.61-.21.11-.42.23-.63.35-.05.03-.11.06-.16.08-.1.06-.2.11-.31.17-.46.25-.93.5-1.39.75.09-.05.18-.1.27-.14-.27.15-.55.3-.82.44-.45.24-.91.49-1.36.74-.06.03-.12.07-.18.1-.86.45-1.71.91-2.57,1.36-4.48,2.37-8.98,4.69-13.49,7.01-2.13,1.1-4.28,2.15-6.43,3.23-1.14.57-2.28,1.13-3.4,1.73,0,0-.02,0-.02.01-1.17,0-2.35.03-3.52,0-3.98-.25-7.96-.39-11.95-.48.73-.36,1.46-.71,2.19-1.07ZM292.43,516.64c-1.75.68-3.46,1.43-5.15,2.24-3.27,1.56-6.46,3.29-9.63,5.02-.03.01-.05.03-.08.04-.87.47-1.74.94-2.61,1.41-2.43,1.3-4.82,2.68-7.34,3.8-.37.17-.65.45-.88.76-.15,0-.29,0-.44,0-1.05,0-2.11.06-3.16.11,1.78-1.02,3.56-2.03,5.32-3.08,4.42-2.66,8.86-5.28,13.32-7.86,2.8-1.49,5.65-2.86,8.54-4.14.91.5,1.82.98,2.73,1.48-.2.08-.41.14-.61.22ZM298.42,519.43c.19.1.38.21.56.31.6.33,1.2.65,1.8.98-.76.32-1.54.62-2.3.95-1.76.77-3.45,1.75-5.1,2.74-2.92,1.75-5.84,3.5-8.79,5.19-2.65.02-5.3.07-7.95.13.18-.1.37-.2.55-.3.85-.46,1.7-.91,2.55-1.37,1-.53,1.98-1.07,2.97-1.61,1.9-1.01,3.8-2.04,5.75-2.97,1.1-.53,2.2-1.05,3.32-1.55.91-.4,1.82-.75,2.74-1.11,1.3-.47,2.6-.94,3.91-1.4ZM282.53,513.42c-2.21,1.09-4.38,2.33-6.5,3.59-2.22,1.31-4.44,2.61-6.65,3.95-4.31,2.59-8.64,5.16-13.05,7.58-.95.46-1.9.88-2.88,1.28-.42.15-.83.31-1.25.46-.04.02-.08.05-.12.07-1.72.02-3.44.04-5.16.11-.01,0-.02,0-.03,0,1.62-1.04,3.23-2.09,4.88-3.09,1.94-1.18,3.87-2.36,5.85-3.47,2.15-1.22,4.31-2.41,6.48-3.6,3.28-1.77,6.6-3.48,9.93-5.13,2.95-1.46,5.92-2.86,8.96-4.11.72.37,1.44.74,2.15,1.12-.87.41-1.74.82-2.6,1.25ZM275.02,509.49c-3.29,1.59-6.58,3.21-9.8,4.92-2.35,1.26-4.72,2.5-7.05,3.81-2.31,1.31-4.61,2.64-6.9,3.98-2.08,1.22-4.12,2.52-6.14,3.82-2.1,1.35-4.2,2.73-6.4,3.93-.37.2-.75.4-1.12.6-.2,0-.41,0-.61,0-3.32,0-6.63.08-9.95.15-1.71.04-3.42.04-5.13.03,1.33-.68,2.65-1.35,3.98-2.03,2.26-1.16,4.53-2.31,6.78-3.5,2.36-1.25,4.74-2.47,7.08-3.75-.05.03-.1.06-.16.09.48-.26.96-.52,1.45-.79-.09.05-.18.1-.27.14.3-.16.6-.33.91-.49.51-.27,1.02-.55,1.53-.83-.02,0-.03.02-.05.03,0,0,0,0,0,0-.02,0-.03.02-.05.03.02,0,.03-.02.05-.03.07-.04.14-.08.22-.12-.04.02-.08.04-.12.06.05-.03.1-.05.15-.08.2-.11.4-.22.59-.32.05-.03.1-.06.16-.09,0,0,.02,0,.03-.01.1-.05.2-.1.29-.16.12-.07.24-.13.36-.19-.09.05-.18.1-.27.15.39-.21.84-.4,1.23-.66.23-.12.46-.26.68-.38.06-.03.13-.07.19-.1.1-.06.2-.11.3-.16-.08.04-.16.09-.25.13h.03s-.01,0-.02,0c7.23-3.76,14.51-7.44,22.02-10.57,1.08-.45,1.54-1.71,1.22-2.79,1.05.54,2.09,1.08,3.14,1.61,1.5.76,2.98,1.55,4.48,2.32-.87.4-1.73.81-2.59,1.22ZM303.84,543.72c-3.34,3.13-6.43,6.52-9.73,9.7-.75.71-1.52,1.42-2.33,2.06-.04.03-.09.06-.13.09-.15.1-.27.23-.41.35-1.5-.04-3-.09-4.5-.12-2.15-.09-4.3-.23-6.45-.25-2.1-.03-4.19-.02-6.29-.03-2.1,0-4.21-.03-6.31-.06-1.96-.02-3.92-.14-5.88-.11-4.18.08-8.33.11-12.51-.01-4.1-.12-8.21-.13-12.31-.22-1.8-.06-3.61-.12-5.41-.17-2.22-.08-4.44-.11-6.65-.14-1.09-.57-2.15-1.19-3.21-1.83-5.19-3.22-10.29-6.59-15.43-9.9,1.96.1,3.92.17,5.89.17,4.23,0,8.46-.09,12.69-.06,4.18.03,8.37-.2,12.54-.2,2.14,0,4.29.02,6.42,0,2.12-.01,4.24-.14,6.37-.18,3.33-.08,6.65-.09,9.98-.19,3.17-.09,6.34-.27,9.51-.28,3.14-.01,6.27-.14,9.41-.21,3.17-.07,6.35-.06,9.52-.13,3.43-.08,6.84-.28,10.26-.3,2.44-.02,4.87-.05,7.3-.08-.78.7-1.58,1.39-2.35,2.11ZM306.43,529.19c-3.34.05-6.68-.01-10.02.09-.73.02-1.45.05-2.18.08.36-.22.71-.44,1.07-.65,1.05-.63,2.13-1.23,3.2-1.83,1.21-.61,2.41-1.22,3.67-1.73,1.29-.52,2.58-1.06,3.88-1.57,1.95,1.05,3.89,2.13,5.85,3.18,1.46.79,2.93,1.56,4.4,2.33-3.29-.06-6.57.05-9.86.1ZM316.78,459.8c-.11,2.58-.2,5.17-.25,7.75-.05,3-.18,6.01-.09,9.01.2,6.36.38,12.72.62,19.07.11,2.99.17,5.98.26,8.97.11,3.18.22,6.38.12,9.56-.1,3.34-.26,6.68-.39,10.02-6.38-3.35-12.7-6.78-18.99-10.29-1.27-.71-2.57-1.38-3.84-2.08.03-.38,0-.77-.16-1.12-.55-1.19-1.92-1.63-3.09-1.15-.18.07-.35.16-.52.23-.83-.45-1.66-.9-2.49-1.35.13-.35.21-.73.14-1.14-.19-1.21-1.43-2.19-2.68-1.93-.71.15-1.39.39-2.08.62-3.77-1.95-7.54-3.9-11.31-5.83-4.49-2.32-8.98-4.65-13.49-6.92-2.08-1.05-4.18-2.08-6.29-3.09-.05-.11-.06-.23-.12-.33-.57-.92-1.6-1.2-2.57-.96-1.4-.67-2.8-1.33-4.21-2,0,0,.02,0,.03.01-.79-.38-1.59-.75-2.38-1.13.09.04.18.09.27.13-.83-.4-1.66-.79-2.49-1.18.04.02.07.03.11.05-.73-.35-1.45-.7-2.17-1.04.02,0,.04.02.06.03-.35-.17-.69-.33-1.04-.5-2.46-1.2-4.89-2.43-7.32-3.67.28-.59.35-1.27.04-1.93-.51-1.11-1.97-1.74-3.09-1.14-.48.25-.94.54-1.41.8-.53-.27-1.06-.54-1.59-.81-4.49-2.27-9.05-4.4-13.6-6.57.02,0,.04.02.06.03-4.51-2.17-8.99-4.41-13.42-6.74-1.7-.9-3.4-1.8-5.09-2.71.67-.06,1.34-.12,2.01-.16,1.72-.04,3.44-.06,5.16-.07,1.56,0,3.13-.02,4.68-.16,1.76-.16,3.5-.38,5.24-.6.35-.04.71-.05,1.06-.09.37.71,1.07,1.23,1.93,1.27.33.02.65-.04.94-.16.63-.25,1.14-.76,1.37-1.4,3.35-.04,6.7-.03,10.04-.24.55-.04,1.1-.11,1.65-.17.07.16.12.33.2.48.38.73,1.14,1.26,1.97,1.28,0,0,.01,0,.02,0,.32,0,.63-.05.93-.17.83-.33,1.45-1.1,1.48-2.02,1.11-.1,2.22-.21,3.33-.26,3.25-.04,6.51.03,9.76-.15,3.19-.18,6.37-.52,9.56-.74,3.83-.12,7.67-.09,11.51-.22,2.08-.07,4.16-.18,6.24-.34,1.91-.14,3.81-.3,5.73-.39-.1,0-.21,0-.3,0,1.86-.06,3.72-.11,5.58-.15,1.67-.04,3.34-.02,5.01-.05,1.86-.03,3.73-.08,5.59-.2,1.59-.1,3.18-.2,4.78-.28.56.24,1.18.3,1.74.08.07-.03.13-.08.2-.11,2.09-.06,4.17-.11,6.26-.05,2.71.08,5.41.08,8.12-.04-.04,0-.07,0-.11,0,.35-.01.7-.03,1.04-.05,0,0,0,0-.01,0,.39-.01.79,0,1.18,0-.4,1.54-.15,3.15.6,4.51ZM242.49,299.76s.09-.07.14-.1c.03-.03.07-.05.1-.08,0,0-.02.01-.03.02.37-.27.74-.55,1.11-.83.09-.06.17-.13.26-.19,2.32-1.71,4.76-3.26,7.08-4.97.88-.65,1.78-1.28,2.67-1.93.07.06.14.12.21.18,1.54,1.32,3.24,2.4,4.88,3.59,1.15.93,2.25,1.92,3.42,2.83,1.31,1.02,2.66,1.99,3.98,3-.08-.06-.16-.12-.24-.18,1.12.85,2.23,1.73,3.38,2.55.98.7,1.95,1.39,2.92,2.11,1.23.96,2.45,1.95,3.74,2.82,1.16.78,2.31,1.56,3.43,2.4,1.14.96,2.27,1.93,3.41,2.9,1.15.98,2.37,1.86,3.54,2.81,1.05.86,2.06,1.76,3.1,2.64,1.2,1.02,2.39,2.04,3.57,3.08.91.8,1.83,1.58,2.78,2.32.96.74,1.93,1.47,2.85,2.27.95.83,1.88,1.69,2.83,2.53.95.82,1.94,1.59,2.93,2.35,1.93,1.49,3.77,3.08,5.63,4.64,1.77,1.49,3.48,3.03,5.38,4.36-.58,1.56-1.19,3.1-1.74,4.67-.81,2.35-1.53,4.73-2.38,7.07-.83,2.29-1.66,4.59-2.57,6.85-.98,2.39-1.9,4.8-2.82,7.22-.86,2.25-1.55,4.53-2.21,6.85-.67,2.36-1.36,4.73-2.05,7.08-.56,1.74-1.17,3.46-1.76,5.19-.57,1.65-1.2,3.27-1.86,4.87-1.15.19-2.31.38-3.45.62-1.06.22-2.12.44-3.18.66-1.15-1-2.3-2-3.43-3.02-1.12-1.01-2.26-1.99-3.38-3,2.26-.31,4.5-.76,6.76-1.04.55-.05,1.09-.09,1.64-.1.26,0,.5-.05.73-.15.9-.35,1.53-1.3,1.49-2.29-.06-1.29-1.17-2.23-2.43-2.23-.07,0-.14.02-.21.02.18-.54.36-1.08.54-1.61.39-1.13.83-2.26,1.25-3.38.88-2.29,1.73-4.59,2.59-6.89,1.69-4.49,2.52-9.24,3.9-13.83.79-2.36,1.69-4.68,2.55-7.02.37-1-.02-2.1-.86-2.7.32-.81.25-1.78-.39-2.41-1.18-1.15-2.31-2.34-3.61-3.35-1.28-.99-2.62-1.89-3.94-2.83-1.54-1.21-3.03-2.48-4.59-3.67-1.63-1.24-3.24-2.51-4.84-3.78-1.6-1.26-3.16-2.54-4.7-3.86-1.51-1.3-3.08-2.52-4.66-3.73.03.02.05.04.08.06-2.25-1.76-4.34-3.7-6.6-5.45-2.24-1.74-4.46-3.5-6.73-5.21,0,0,0,0,0,0-.07-.06-.15-.11-.22-.17.05.04.1.08.16.12-1.22-.95-2.41-1.96-3.69-2.84-1.09-.74-2.2-1.44-3.29-2.17.45-.36.91-.71,1.36-1.06-.05.04-.09.07-.14.1.05-.04.11-.08.16-.12.02-.02.05-.04.07-.06-.02.02-.04.03-.06.05.69-.51,1.39-1.02,2.12-1.47,1.08-.68,1.38-2.17.69-3.23-.7-1.08-2.15-1.37-3.22-.69-1.78,1.11-3.38,2.47-5.02,3.76-.4-.02-.81.02-1.17.21-.64.33-1.03.91-1.17,1.55-2.17,1.55-4.32,3.12-6.52,4.63-2.43,1.67-4.85,3.34-7.21,5.1,0,0,0,0,.01-.01-2.03,1.5-4.02,3.04-6.04,4.56-.03.03-.07.05-.1.07-.04.03-.08.06-.12.09,0,0,.01,0,.02-.01-.55.41-1.1.81-1.64,1.22-.03.02-.07.05-.1.07-1.5,1.08-3,2.16-4.5,3.24-1.56,1.12-3.14,2.22-4.69,3.37-2.94,2.21-5.83,4.47-8.75,6.68-3.74,2.74-7.62,5.28-11.39,7.97-1.05.75-2.11,1.48-3.11,2.29-.87.7-1.73,1.4-2.6,2.1-.31.26-.66.53-1,.81-.19-.03-.38-.09-.59-.07-1.23.1-2.29,1.25-2.13,2.51.26,2.12.74,4.21,1.37,6.24.64,2.09,1.32,4.18,2.13,6.21.83,2.08,1.69,4.14,2.49,6.23.74,1.93,1.34,3.92,2.02,5.88.82,2.36,1.66,4.73,2.57,7.06.87,2.26,1.78,4.5,2.55,6.8.87,2.56,1.76,5.11,2.67,7.65.8,2.25,1.73,4.45,2.59,6.68.88,2.28,1.65,4.58,2.43,6.89.8,2.38,1.54,4.79,2.42,7.15.89,2.38,1.77,4.76,2.54,7.19.76,2.43,1.53,4.85,2.26,7.29,1.42,4.74,3.33,9.32,4.86,14.03.79,2.45,1.49,4.94,2.34,7.37.27.78.54,1.56.8,2.34-.87.07-1.73.17-2.6.22-2.75.08-5.5.09-8.25.16-.11-.42-.21-.83-.33-1.25-.53-1.88-1.22-3.7-1.83-5.56-.6-1.84-1.12-3.72-1.72-5.56-.63-1.94-1.28-3.87-1.93-5.8-.78-2.33-1.69-4.61-2.46-6.94-.77-2.36-1.49-4.74-2.19-7.12-.74-2.55-1.49-5.08-2.32-7.6-.74-2.26-1.48-4.52-2.19-6.79-.77-2.5-1.51-5.01-2.25-7.53-.69-2.36-1.54-4.68-2.34-7-.82-2.34-1.68-4.67-2.4-7.03-.77-2.51-1.55-5.01-2.39-7.49-.76-2.26-1.56-4.49-2.4-6.72-.91-2.39-1.71-4.8-2.48-7.23-.77-2.47-1.59-4.92-2.37-7.38-.73-2.31-1.56-4.58-2.28-6.88-.42-1.52-.79-3.06-1.12-4.61,1.2-.92,2.37-1.87,3.56-2.8,1.78-1.31,3.56-2.61,5.36-3.88,1.83-1.29,3.75-2.46,5.6-3.73,1.79-1.24,3.57-2.49,5.34-3.75,1.81-1.29,3.54-2.71,5.32-4.05,1.7-1.25,3.39-2.49,5.1-3.72,1.69-1.22,3.41-2.39,5.07-3.64,1.74-1.3,3.47-2.61,5.2-3.93,1.65-1.28,3.28-2.59,4.94-3.87,3.01-2.18,6.04-4.31,9.09-6.43,3.03-2.1,6-4.28,8.95-6.49-.02.01-.03.02-.05.03ZM266.27,452.19s0,0,0,0c-.09,0-.18,0-.27.01.07,0,.13,0,.2-.01-1.98.06-3.95.11-5.92.14-1.85.02-3.69,0-5.53.08-1.94.07-3.87.23-5.8.4-1.94.17-3.88.32-5.82.43-3.56.09-7.12.01-10.67.19-.95.04-1.9.14-2.85.24-.11-.35-.21-.7-.33-1.05-.51-1.48-1.06-2.95-1.52-4.45-.51-1.67-1.01-3.34-1.56-5-.5-1.54-1.05-3.06-1.58-4.59-.77-2.23-1.67-4.43-2.41-6.68-.79-2.4-1.49-4.83-2.25-7.24-.77-2.43-1.5-4.87-2.39-7.26-.86-2.35-1.73-4.68-2.51-7.06-.78-2.36-1.58-4.72-2.4-7.07-.44-1.27-.92-2.53-1.4-3.79-.39-1-.82-1.97-1.19-2.97-.95-2.53-1.86-5.07-2.75-7.62-.8-2.29-1.55-4.59-2.43-6.85-.89-2.28-1.78-4.55-2.61-6.86-.85-2.38-1.66-4.79-2.49-7.18-.85-2.46-1.84-4.85-2.81-7.27-.92-2.32-1.72-4.67-2.45-7.06-.24-.85-.45-1.71-.63-2.57.18-.2.33-.42.44-.66,1.61-1.41,3.3-2.74,5-4.03,1.8-1.27,3.61-2.53,5.42-3.79,1.81-1.26,3.67-2.47,5.46-3.78,1.96-1.44,3.92-2.89,5.85-4.37,1.73-1.33,3.45-2.67,5.19-3.98-.03.02-.06.04-.09.06.03-.02.06-.04.09-.06.05-.04.1-.08.15-.12-.05.04-.1.08-.15.11,1.47-1.06,2.95-2.13,4.43-3.18,1.54-1.1,3.1-2.19,4.62-3.32.01,0,.02-.02.03-.03,0,0,0,0-.01.01.03-.02.06-.05.09-.07l.15-.11s-.02.01-.03.02c.62-.46,1.25-.93,1.87-1.39,1.42-1.06,2.82-2.14,4.23-3.22.59-.44,1.17-.87,1.76-1.31,0,0,0,0-.01,0,.01,0,.02-.02.03-.02.07-.05.14-.1.21-.16-.01.01-.03.02-.04.03,2.28-1.67,4.61-3.26,6.92-4.87,1.15-.81,2.3-1.63,3.45-2.45.95-.68,1.92-1.35,2.87-2.04.46.36.9.74,1.39,1.05,1.48.94,2.94,1.89,4.34,2.95,1.17.91,2.34,1.81,3.52,2.71,2.37,1.81,4.73,3.66,7.05,5.53,1.12.91,2.2,1.88,3.3,2.83,1,.86,2.08,1.64,3.14,2.43,0,0-.02-.01-.02-.02,1.78,1.41,3.48,2.91,5.23,4.35,1.6,1.33,3.24,2.62,4.89,3.89,1.76,1.36,3.53,2.7,5.24,4.11.89.73,1.78,1.45,2.72,2.11.85.6,1.7,1.19,2.55,1.79.94.74,1.83,1.51,2.69,2.34.32.32.65.64.98.97.12.12.27.2.4.3,0,.02-.02.03-.03.05-1.1,2.98-2.31,5.95-3.14,9.02-.82,3.05-1.55,6.12-2.39,9.17-.98,3.1-2.21,6.13-3.35,9.18-.58,1.52-1.16,3.03-1.68,4.56-.35,1.02-.65,2.06-1.03,3.07-.42.07-.84.14-1.26.21-2.05.33-4.11.59-6.17.89-.97-.85-1.93-1.72-2.9-2.57-1.96-1.7-3.92-3.39-5.87-5.12-1.79-1.59-3.54-3.23-5.29-4.87-1.07-1.01-2.13-2.02-3.21-3.03-3.61-3.39-7.26-6.73-10.94-10.04-3.66-3.28-7.33-6.53-10.91-9.89.04.03.07.07.11.1-.05-.05-.11-.1-.16-.15,0,0,.02.01.02.02,0,0,0,0,.01,0-1.14-1.08-2.26-2.18-3.28-3.36-.84-.96-2.38-.97-3.29-.13-.04.03-.05.08-.08.11-.2-.99-1.01-1.79-2.05-1.88-1.25-.11-2.36.82-2.52,2.05-.31,1.78-.66,3.54-.97,5.33-.39,2.29-.72,4.58-1.07,6.88-.34,2.06-.72,4.1-1.14,6.14-.46,2.21-.98,4.39-1.46,6.59-.54,2.49-1.08,4.98-1.63,7.47-.51,2.32-1.04,4.63-1.45,6.97-.88,4.98-1.44,10.01-2.18,15.02,0-.05.02-.11.03-.16-.01.09-.03.18-.04.26,0,.01,0,.03,0,.04,0,0,0-.02,0-.02-.29,1.78-.6,3.56-.83,5.36-.2,1.51-.42,3.59,1.01,4.61.72.52,1.59.55,2.37.24.17-.07.33-.15.49-.24.38-.23.63-.58.82-.96,4.11-.23,8.21-.73,12.26-1.44,4.45-.77,8.87-1.68,13.33-2.39,4.83-.77,9.67-1.57,14.53-2.23,3.39-.46,6.8-.88,10.2-1.31.36.33.71.67,1.07.99,2.58,2.3,5.23,4.54,7.76,6.89,1.56,1.49,3.1,3,4.64,4.51.71.69,1.39,1.4,2.1,2.08.09.09.19.18.28.27-.46,1.23-.81,2.5-1,3.79-.21,1.5-.36,2.99-.59,4.49-.14.75-.28,1.51-.43,2.27-.47,2.31-.94,4.62-1.56,6.9-.32,1.2-.66,2.4-.91,3.6-.27,1.25-.5,2.5-.75,3.75-.24,1.22-.51,2.45-.77,3.67-.23,1.09-.41,2.19-.65,3.28-.27,1.22-.59,2.42-.93,3.61-.19.66-.35,1.32-.52,1.99-1.13.02-2.27.03-3.4.07-2.11.07-4.22.19-6.32.37-1.93.15-3.86.29-5.79.38ZM272.07,391.16c-1-.94-2-1.88-3.01-2.82,2.92-.49,5.83-.96,8.76-1.4.3-.05.6-.09.9-.13.91.8,1.83,1.6,2.75,2.4,1.43,1.26,2.84,2.53,4.25,3.8-3.37.52-6.76.94-10.14,1.35-1.17-1.06-2.35-2.12-3.5-3.21,0,0,0,0,0,0ZM241.17,372.91c.03-.08.05-.17.08-.25h0c.25-.82.51-1.63.77-2.45,2.6,2.39,5.25,4.72,7.92,7.02,1.85,1.6,3.71,3.2,5.55,4.81,1.21,1.07,2.38,2.18,3.56,3.28-2.72.47-5.44.94-8.16,1.4-4.48.76-8.98,1.51-13.5,2.07.26-.94.53-1.87.77-2.81.41-1.58.78-3.18,1.12-4.78.61-2.85,1.18-5.7,1.96-8.51-.02.07-.05.15-.07.22ZM243.6,365.38c-.77-.73-1.53-1.47-2.24-2.26-.85-.94-2.38-.98-3.3-.13-.94.87-.97,2.35-.13,3.29.24.27.5.51.74.77-.4.26-.74.6-.89,1.08-.59,1.84-1.16,3.69-1.63,5.57-.44,1.75-.8,3.52-1.17,5.28-.41,1.95-.83,3.89-1.32,5.81-.23.88-.48,1.75-.72,2.63-.14.51-.27,1.01-.41,1.52-.16.62-.29,1.34-.16,1.99-.04.18-.1.35-.09.54.06,1.27,1.16,2.28,2.43,2.23,2.39-.11,4.78-.48,7.15-.82,2.34-.35,4.67-.74,7-1.11,4.82-.78,9.61-1.68,14.42-2.47.11.1.22.21.32.31,0,0-.01-.01-.02-.02,0,0,.02.02.03.03.07.06.13.13.2.19-.01-.01-.03-.03-.04-.04.2.19.4.38.6.57,0,0-.02-.02-.03-.03,1.03.97,2.08,1.93,3.11,2.9-.08-.07-.16-.15-.24-.22.77.73,1.56,1.43,2.33,2.16-4.06.54-8.12,1.09-12.17,1.7-4.97.75-9.93,1.55-14.87,2.44-2.45.43-4.9.93-7.35,1.35-2.26.39-4.54.71-6.82.98-1.49.15-2.97.27-4.46.37.02-.14.03-.29.06-.43.4-2.45.79-4.9,1.12-7.37.34-2.52.65-5.03,1.02-7.55.3-1.81.61-3.61.96-5.41.45-2.28,1-4.55,1.49-6.82.53-2.45,1.06-4.89,1.61-7.34.57-2.49,1.11-5,1.58-7.51.46-2.46.83-4.93,1.19-7.4.25-1.58.52-3.16.8-4.73.1-.57.21-1.15.31-1.72.08.15.15.32.26.45,1.05,1.21,2.2,2.34,3.37,3.44-.02-.02-.03-.03-.05-.05.07.07.15.14.22.21,0,0,0,0,0,0,0,0,0,0,0,0,.26.24.51.49.77.72,3.62,3.38,7.34,6.65,11.02,9.97,3.68,3.32,7.33,6.68,10.95,10.06-.01-.01-.02-.02-.03-.03,3.38,3.2,6.78,6.38,10.29,9.44,1.11.97,2.21,1.94,3.32,2.91-2.94.47-5.88.93-8.83,1.41-.18.03-.36.06-.53.09-1.66-1.58-3.33-3.17-5.03-4.7-1.78-1.62-3.62-3.18-5.44-4.75-3.61-3.13-7.26-6.22-10.74-9.49ZM240.94,346.28s.04.04.06.05c-.01,0-.02-.02-.03-.03,0,0-.02-.02-.02-.02ZM286.68,451.04c.04-.14.08-.28.12-.41.36-1.26.7-2.51.98-3.79.24-1.09.43-2.18.66-3.28.26-1.22.53-2.44.77-3.67.25-1.25.48-2.5.75-3.75.26-1.21.59-2.4.91-3.6.62-2.28,1.09-4.59,1.56-6.9.26-1.28.52-2.58.69-3.88.15-1.13.26-2.26.42-3.39.13-.72.3-1.43.5-2.13.07-.21.16-.42.24-.63.3-.18.57-.41.76-.72.68-1.1.3-2.51-.76-3.21-.01,0-.03-.02-.04-.02-.39-.31-.75-.65-1.1-.99-1.67-1.6-3.31-3.25-4.96-4.87-1.72-1.69-3.5-3.3-5.31-4.91-.9-.8-1.8-1.6-2.7-2.4,1.92-.24,3.83-.5,5.75-.78,1.45-.21,2.89-.48,4.32-.76.8.69,1.58,1.4,2.4,2.08,1.89,1.56,3.8,3.1,5.69,4.66,1.74,1.44,3.4,2.98,5.06,4.52.67.64,1.3,1.33,1.93,2.01-.12.7-.24,1.4-.39,2.1-.2.91-.44,1.81-.68,2.71-.47,1.74-.86,3.48-1.19,5.25-.33,1.79-.7,3.57-1.04,5.36-.33,1.78-.56,3.57-.82,5.36-.28,1.64-.61,3.27-.95,4.91-.31,1.52-.61,3.05-.96,4.56-.36,1.5-.74,2.99-1.07,4.5-.35,1.59-.71,3.17-1.15,4.74-.12.39-.25.78-.38,1.17-2.09.12-4.19.26-6.28.35-1.24.04-2.48.04-3.72.06,0-.08.02-.16,0-.24ZM323.43,424.98c-.29,3.35-.65,6.67-1.12,10-.29,1.7-.62,3.4-.96,5.09-.33,1.65-.67,3.32-.85,5-.51,1.12-1.02,2.24-1.5,3.37-.21.5-.43,1.01-.64,1.51-.08.1-.18.18-.26.29-.08.11-.13.23-.2.34-1.42.02-2.85.06-4.26.12.1,0,.2,0,.3-.01-.38.02-.76.03-1.15.05.02,0,.04,0,.05,0-3.74.15-7.49-.07-11.24-.05.11-.36.23-.73.32-1.09.29-1.12.53-2.25.78-3.38.46-2.09,1.03-4.15,1.47-6.24.44-2.14.93-4.28,1.31-6.43.37-2.14.65-4.29.99-6.43.27-1.44.57-2.88.85-4.32.26-1.3.46-2.61.75-3.91.32-1.4.71-2.78,1.07-4.17.27-1.04.46-2.09.65-3.14.77-.78.95-2.04.29-2.96-.02-.03-.03-.05-.05-.07-.67-.91-1.46-1.75-2.26-2.55-.87-.88-1.79-1.73-2.71-2.56-1.82-1.65-3.66-3.26-5.56-4.81-1.15-.93-2.28-1.88-3.42-2.82,1.28-.25,2.55-.51,3.84-.73,1.12-.19,2.25-.4,3.37-.63.46-.09.95-.18,1.39-.36.27-.1.52-.24.75-.42.6-.49.9-1.21.89-1.97,0-1.27-1.2-2.28-2.43-2.22-.11,0-.19.07-.3.09.26-.7.56-1.39.8-2.11.62-1.78,1.26-3.56,1.83-5.35.59-1.86,1.09-3.76,1.64-5.64.48-1.62.93-3.25,1.41-4.87.43-1.27.87-2.52,1.35-3.77.89-2.33,1.81-4.66,2.73-6.98.91-2.28,1.75-4.57,2.58-6.88.84-2.34,1.57-4.73,2.38-7.08.72-2.08,1.61-4.09,2.3-6.18.4-1.2-.12-2.54-1.34-3.01-.1-.04-.21-.03-.31-.05-.08-.08-.14-.18-.24-.24-.44-.29-.88-.59-1.31-.9-1.38-1.09-2.68-2.29-4.04-3.42-1.4-1.18-2.78-2.4-4.22-3.54-1.44-1.13-2.93-2.22-4.31-3.43-1.43-1.24-2.81-2.53-4.28-3.72-.95-.77-1.95-1.48-2.87-2.27-.93-.8-1.84-1.61-2.76-2.4-1.84-1.57-3.65-3.18-5.53-4.71-1.02-.82-2.07-1.62-3.09-2.44-.91-.72-1.77-1.52-2.66-2.26-1.03-.85-2.06-1.68-3.17-2.43-.96-.65-1.92-1.3-2.86-1.97-1.14-.88-2.27-1.76-3.42-2.62-1-.75-2.03-1.46-3.03-2.19-1.74-1.33-3.49-2.64-5.24-3.95-1.19-.94-2.31-1.95-3.5-2.89-1.26-1-2.59-1.87-3.9-2.79-.26-.2-.51-.42-.77-.63.16-.11.32-.23.48-.35,1.04-.73,1.4-2.13.69-3.22-.67-1.03-2.19-1.42-3.22-.69-.66.47-1.31.95-1.97,1.42-.65-.08-1.32.07-1.83.54-.38.36-.57.8-.66,1.26-.29.21-.57.41-.86.62-.34-2.02-.66-4.05-.85-6.08-.06-1.19-.04-2.37.03-3.56.17-2.24.37-4.49.64-6.73.15-1.26-.75-2.45-2.02-2.61-1.25-.16-2.46.75-2.61,2.01-.18,1.51-.33,3.03-.46,4.55-.13,1.56-.31,3.13-.29,4.7.03,2.9.5,5.76.98,8.61.12.69.52,1.26,1.06,1.62-1.88,1.32-3.79,2.59-5.64,3.97.01,0,.02-.02.03-.03-.39.29-.79.59-1.18.88,0,0,0,0,0,0,0,0-.02.01-.03.02-.07.05-.14.11-.22.16.02-.02.05-.03.07-.05-.03.02-.06.05-.1.07.02-.02.05-.04.07-.05-.05.03-.09.07-.14.1-.04.03-.07.05-.11.08.01-.01.03-.02.04-.03-1.26.93-2.52,1.85-3.79,2.78-4.03,2.97-8.2,5.72-12.25,8.67-2.07,1.51-4.07,3.11-6.09,4.68-2.02,1.56-4.05,3.1-6.09,4.63-2.64,1.92-5.32,3.8-7.95,5.73-2.45,1.79-4.86,3.64-7.28,5.48-1.69,1.21-3.38,2.4-5.08,3.58-1.86,1.28-3.75,2.49-5.62,3.75-1.66,1.11-3.26,2.31-4.86,3.49-.9.67-1.81,1.34-2.68,2.05-.71.58-1.41,1.18-2.14,1.75-.38.27-.77.52-1.15.78-1.06.69-1.38,2.15-.69,3.22.13.2.3.36.48.51.3,1.42.61,2.85,1,4.25.53,1.9,1.22,3.73,1.83,5.6,1.26,3.85,2.49,7.71,3.72,11.57.76,2.38,1.66,4.69,2.52,7.04.84,2.31,1.67,4.62,2.42,6.97.8,2.51,1.56,5.03,2.39,7.54.74,2.24,1.55,4.46,2.32,6.68.87,2.54,1.68,5.08,2.44,7.66.68,2.32,1.39,4.64,2.12,6.94.74,2.36,1.59,4.69,2.3,7.06.76,2.51,1.49,5.02,2.24,7.52.7,2.31,1.38,4.62,2.2,6.89.85,2.34,1.68,4.68,2.47,7.04.82,2.45,1.59,4.9,2.34,7.36.7,2.32,1.55,4.58,2.27,6.89.06.22.12.44.18.66-.82.1-1.63.22-2.45.32-1.65.21-3.29.33-4.94.42-3.16.08-6.31.04-9.46.21-1.26.07-2.52.23-3.77.39-1.11-1.76-2.22-3.53-3.4-5.26-.83-1.22-1.71-2.39-2.62-3.54-.02-.07-.04-.14-.06-.21-.68-2.47-1.32-4.95-1.92-7.44-.32-1.46-.65-2.92-.93-4.4-.32-1.7-.61-3.4-.89-5.11-.53-3.29-.97-6.59-1.41-9.89-.48-3.7-.86-7.41-1.39-11.11-.57-4-1.25-7.98-2-11.95-.68-3.65-1.42-7.3-1.93-10.97-.52-3.74-.99-7.49-1.41-11.25,0-.01,0-.03,0-.04,0,0,0,.01,0,.02,0-.04,0-.07-.01-.11,0,.02,0,.04,0,.07-.3-2.74-.59-5.48-.91-8.21-.46-3.88-1.03-7.74-1.71-11.59-.7-3.99-1.49-7.95-2.34-11.91-.78-3.68-1.68-7.33-2.51-11.01-.21-.93-.36-1.87-.54-2.81-.16-.82-.34-1.63-.46-2.46-.33-2.2-.66-4.39-.99-6.59-.58-3.88-1.09-7.76-1.64-11.65-.53-3.7-1.14-7.38-1.74-11.07-.6-3.66-1.39-7.3-2.25-10.9-.93-3.88-1.87-7.76-2.82-11.64-.33-1.43-.7-2.84-.99-4.28-.33-1.64-.67-3.29-.99-4.93-.31-1.52-.53-3.07-.79-4.61-.22-1.28-.42-2.57-.62-3.86-.62-3.86-1.25-7.72-1.96-11.56-.72-4-1.52-7.98-2.36-11.95-1.58-7.51-3.68-14.91-5.61-22.34-.18-.77-.35-1.53-.53-2.3.39-.18.79-.36,1.19-.55,1.65-.77,3.26-1.59,4.87-2.42,1.53-.78,3.01-1.67,4.5-2.52,1.39-.79,2.75-1.62,4.13-2.44,1.34-.79,2.72-1.53,4.08-2.28,2.53-1.28,5.06-2.53,7.61-3.76,2.31-1.11,4.6-2.27,6.86-3.51,1.16-.64,2.31-1.29,3.44-1.98,1.15-.71,2.31-1.42,3.45-2.13,1.18-.73,2.35-1.49,3.56-2.16,1.25-.7,2.5-1.39,3.75-2.08,5.09-2.51,10.26-4.88,15.22-7.66,2.36-1.33,4.68-2.74,7.03-4.11,1.14-.67,2.27-1.36,3.43-1.99,1.29-.7,2.59-1.41,3.89-2.11.13-.07.26-.14.39-.2-.09.05-.19.1-.28.15,1.51-.79,3.01-1.57,4.51-2.36,2.94-1.54,5.84-3.14,8.73-4.77,1.88-1.06,3.72-2.18,5.55-3.3.07,2.09.15,4.17.31,6.25.22,2.77.68,5.48,1.23,8.2.26,1.25,1.67,1.97,2.85,1.66.09-.03.18-.05.27-.09,1.1-.43,1.62-1.6,1.39-2.76-.09-.44-.18-.88-.27-1.31-.4-2.13-.7-4.26-.87-6.43-.11-1.87-.17-3.75-.25-5.62,0,0,.02,0,.03.01,4.74,2.34,9.44,4.78,14.27,6.92,2.49,1.1,4.99,2.13,7.5,3.17,1.3.53,2.61,1.03,3.88,1.6,1.32.59,2.64,1.18,3.95,1.76,2.5,1.23,4.99,2.48,7.47,3.76,2.2,1.14,4.42,2.23,6.68,3.23,1.22.53,2.43,1.07,3.66,1.56,1.22.47,2.43.96,3.65,1.43,1.25.48,2.53.92,3.77,1.45,1.31.56,2.63,1.12,3.93,1.68-.01,0-.03-.01-.04-.02.02,0,.04.02.05.03,0,0,.01,0,.02,0,1.4.68,2.79,1.35,4.19,2.03-.09-.04-.18-.08-.27-.13,2.12,1.03,4.2,2.15,6.31,3.2,4.85,2.43,9.77,4.66,14.78,6.75.83.35,1.65.72,2.48,1.06-.04.2-.07.4-.1.6-.12.69-.21,1.38-.31,2.07-.2,1.4-.4,2.8-.5,4.21-.12,1.58-.22,3.18-.09,4.77.13,1.58.39,3.12.76,4.67.58,2.41,1.58,4.78,2.74,6.97,1.18,2.23,2.59,4.33,4.1,6.35,1.45,1.95,3.21,3.65,5.04,5.24.88.76,1.83,1.43,2.81,2.06.96.61,1.95,1.17,3.05,1.5,0,0,.02,0,.03,0-.18,1.48-.33,2.96-.5,4.43-.21,1.89-.39,3.79-.58,5.68-.18,1.76-.47,3.52-.71,5.27,0-.02,0-.05.01-.07-.43,2.82-.85,5.63-1.23,8.45-.34,2.54-.61,5.1-.87,7.65-.36,3.47-.74,6.95-1.22,10.41-.51,3.63-1.06,7.26-1.42,10.91-.36,3.65-.59,7.31-.89,10.96-.32,3.68-.83,7.33-1.29,10.99-.23,1.78-.33,3.58-.47,5.36-.13,1.63-.11,3.28-.21,4.92-.1,1.65-.13,3.31-.3,4.96-.2,1.84-.38,3.67-.61,5.5-.48,3.78-.91,7.56-1.27,11.36-.3,3.2-.46,6.42-.81,9.62-.4,3.75-.9,7.49-1.44,11.23-.49,3.33-.8,6.66-.96,10.02-.16,3.45-.31,6.9-.8,10.32-.28,1.92-.55,3.84-.81,5.76-.11.76-.2,1.51-.27,2.27-.08.86-.2,1.73-.24,2.59-.08,1.89-.16,3.78-.22,5.67-.05,1.58-.12,3.18-.28,4.76-.37,3.61-.89,7.19-1.38,10.78-.47,3.39-.85,6.8-1.14,10.21ZM341.16,404.3c-3.23,5.83-6.47,11.63-9.52,17.55-1.34,2.6-2.68,5.19-3.98,7.81.18-1.73.34-3.46.49-5.2.61-6.9,1.81-13.73,2.5-20.62.17-1.71.2-3.44.25-5.15.05-1.64.06-3.29.21-4.92.17-1.87.36-3.73.61-5.6.16-1.2.34-2.4.51-3.59.4-.13.81-.27,1.22-.38.35-.06.68-.12,1.03-.16.48-.02.94-.04,1.42-.03.6.04,1.21.1,1.81.18,1,.2,1.98.44,2.96.72.37.13.74.27,1.1.42.45.21.89.44,1.32.69.24.16.47.33.7.5.24.21.46.42.69.65.31.35.61.71.9,1.08.44.63.84,1.28,1.22,1.95.26.49.51.99.76,1.49.15.29.35.53.58.74-2.28,3.95-4.58,7.89-6.79,11.88ZM387.67,320.47c-6.56,11.09-12.73,22.39-18.76,33.78-1.54,2.91-3.03,5.86-4.6,8.76-1.45,2.67-2.93,5.33-4.38,7.99-3.07,5.63-6.24,11.21-9.35,16.82-.74-1.34-1.57-2.61-2.62-3.75-1.6-1.74-3.73-2.96-5.99-3.63-1.03-.3-2.06-.57-3.11-.77-1.16-.22-2.32-.31-3.5-.32-.84,0-1.7.09-2.54.25.05-.52.1-1.04.13-1.57.12-1.96.22-3.91.31-5.87.15-3.32.54-6.62,1.03-9.91.53-3.68,1-7.35,1.39-11.04.35-3.27.52-6.57.83-9.84.36-3.82.81-7.62,1.3-11.42.42-3.27.68-6.56.82-9.86.15-3.63.32-7.26.78-10.87.23-1.85.47-3.7.69-5.55.23-1.85.41-3.69.57-5.55.15-1.8.28-3.6.4-5.41.13-1.82.32-3.63.5-5.45.18-1.82.45-3.63.69-5.44.23-1.77.48-3.53.73-5.29.46-3.32.79-6.64,1.15-9.97.19-1.74.33-3.48.56-5.21.24-1.8.47-3.59.71-5.39-.01.1-.03.2-.05.29.28-1.84.59-3.67.84-5.52.24-1.74.54-3.5.71-5.25.38-3.79.79-7.56,1.22-11.34.33-2.14.67-4.28.97-6.42.32-2.19.69-4.39.92-6.59.26-2.53.51-5.06.75-7.59.16-1.69.4-3.37.63-5.05.09.04.17.08.26.12,1.13.47,2.26.95,3.41,1.38.77.29,1.53.58,2.29.87.43.36.99.59,1.55.59.95.35,1.9.69,2.83,1.09.64.28,1.29.56,1.94.84-.11.45-.12.92.05,1.37.47,1.19,1.84,1.78,3.02,1.32.46-.18.89-.41,1.32-.63.11.05.21.1.32.15.3.16.6.32.91.48,1.64.87,3.29,1.73,4.94,2.59,0,.02,0,.05.01.07.45,1.13,1.64,1.64,2.79,1.39,2.37,1.19,4.81,2.24,7.26,3.26.53,1.03,1.76,1.55,2.86,1.13,1.62.63,3.24,1.25,4.85,1.91.4.16.78.36,1.17.53-.04.21-.1.42-.08.66.14,1.26,1.3,2.2,2.56,2.07.21-.02.4-.07.59-.14.32-.13.61-.33.85-.58-.01.01-.02.03-.04.04.07-.07.15-.14.21-.21.67.31,1.36.59,2.03.91,1.21.61,2.41,1.22,3.62,1.83-.07.05-.13.11-.2.16-1,.78-1.24,2.23-.47,3.26.63.83,1.78,1.14,2.73.77.19-.07.37-.18.54-.31.66-.51,1.29-1.06,1.93-1.6,1.06.54,2.13,1.08,3.19,1.61-.01.51.1,1.02.42,1.45.64.85,1.78,1.13,2.74.76.19-.07.36-.17.53-.29.03-.03.07-.06.1-.08,1.83.88,3.66,1.76,5.52,2.56,2.43,1.04,4.95,1.88,7.44,2.76,1.37.49,2.72.99,4.08,1.49-2.24,3.63-4.37,7.34-6.55,11-3.19,5.36-6.29,10.75-9.33,16.18-3.16,5.65-6.22,11.37-9.39,17.02-2.97,5.31-5.89,10.65-8.97,15.89-3.19,5.44-6.39,10.88-9.6,16.31Z"/>
  <path class="cls-1" d="M379.97,166.41s.02-.02.03-.02c.07-.06.14-.12.2-.18-.08.07-.16.13-.23.2Z"/>
  <path class="cls-1" d="M395.05,159.9s-.09.07-.13.11c-.04.03-.07.06-.11.09.08-.06.16-.13.24-.2Z"/>
  <path class="cls-1" d="M168.1,94.6s0,0,0,0c-.02,0-.03,0-.05,0,.02,0,.04,0,.05,0Z"/>
  <path class="cls-1" d="M291.33,66.81s0,0,0,0c0,0,0-.01.01-.01,0,0-.01.01-.02.02Z"/>
  <path class="cls-1" d="M91.55,157.66s-.04.02-.06.03c-.07.03-.13.07-.2.11.09-.05.18-.09.27-.14Z"/>
  <path class="cls-1" d="M306.55,253.45c.15-.03.3-.07.44-.12,1-.39,1.68-1.47,1.47-2.56-.45-2.35-.8-4.71-1.32-7.04-.41-1.88-.98-3.76-1.51-5.61-.36-1.22-1.73-1.9-2.92-1.53-1.23.39-1.88,1.7-1.53,2.92.48,1.67.94,3.35,1.38,5.04.51,2.32.86,4.67,1.31,6.99.24,1.25,1.41,2.13,2.69,1.91Z"/>
  <path class="cls-1" d="M307.58,242.92c.09,1.27.55,2.55,1.18,3.66,1.21,2.13,3.69,4.15,6.31,3.34.12-.04.24-.08.36-.13,3.06-1.2,3.65-4.92,3.17-7.99.14.3.33.57.59.77.37.84.92,1.6,1.57,2.23.91.87,2.14,1.43,3.42,1.22.27-.04.53-.12.77-.21.91-.36,1.65-1.04,2.17-1.88,1.76-2.78,1.48-6.41.68-9.47-.39-1.45-.99-2.96-2.22-3.89-2.06-1.54-4.97-.71-6.45,1.25-1.27,1.69-1.41,3.83-1.3,5.86.04.64.11,1.28.22,1.91-.9-2.56-2.68-5.46-5.64-5.48-1.32,0-2.51.62-3.33,1.64-.76.95-1.17,2.15-1.32,3.34-.12.97-.12,1.93-.04,2.89-.09.26-.14.54-.14.84,0,.03,0,.07,0,.1ZM322.53,238.04c-.05-.57-.08-1.14-.08-1.72.02-.3.04-.6.09-.9.03-.12.05-.24.09-.36.02-.06.05-.13.07-.19.03-.06.06-.11.09-.17.01-.02.03-.04.04-.06.02-.02.04-.04.06-.07,0,0,.02-.02.03-.03.07.15.14.31.21.47.08.25.15.5.22.74.18.83.31,1.65.41,2.48.01.39.02.78.01,1.17-.02.22-.05.44-.08.67-.04.18-.08.36-.13.53-.02.05-.03.09-.05.14-.03-.06-.05-.11-.07-.17-.03-.08-.05-.17-.08-.25-.11-.39-.32-.72-.6-.98-.08-.44-.15-.87-.21-1.31ZM312.66,243.96c0-.16,0-.31-.03-.47-.11-.64-.21-1.28-.29-1.93-.02-.35-.04-.7-.04-1.06.01-.28.04-.55.07-.83.04-.21.09-.42.15-.62,0,0,0,0,0-.01.05.06.11.13.16.19.18.26.34.53.5.81.12.25.24.5.35.76.1.27.18.53.27.8.1.44.18.89.24,1.34.03.35.05.69.05,1.04-.01.2-.03.4-.06.6-.02.12-.05.23-.08.35-.04.11-.08.22-.12.32-.02.04-.04.08-.06.12-.04-.02-.09-.05-.13-.07-.02-.02-.04-.03-.07-.05-.08-.07-.16-.14-.24-.22-.09-.11-.18-.21-.27-.32-.1-.15-.2-.3-.29-.45-.04-.09-.09-.18-.13-.27Z"/>
  <path class="cls-1" d="M325.53,228.16c1.19-.47,1.64-1.99,1.13-3.09-.56-1.21-1.91-1.6-3.09-1.13-1.19.47-1.64,1.99-1.13,3.09.56,1.21,1.91,1.6,3.09,1.13Z"/>
  <path class="cls-1" d="M349.15,355.98c-.63-.06-1.25.03-1.84.22-.41-2.15-1.35-4.29-3.47-5.07-1.39-.52-2.87.05-4,.89-1.11.84-1.95,1.95-2.4,3.27-.51,1.46-.66,3.06-.82,4.59-.13,1.26.82,2.43,2.08,2.56,1.26.13,2.43-.82,2.55-2.08.06-.6.13-1.19.21-1.79.11-.61.23-1.21.4-1.81.02-.05.04-.1.06-.15.03-.06.06-.11.09-.17.05-.08.11-.16.17-.24.05-.06.11-.12.17-.18.02-.02.04-.03.06-.05.05.1.09.2.13.3.06.16.11.33.16.49.08.36.14.73.19,1.1.05.76.06,1.51.04,2.28-.03.64-.13,1.34-.04,1.97.21,1.36,1.69,2.27,3,1.83.77-.25,1.27-.81,1.61-1.52.19-.39.36-.77.57-1.14.03-.04.06-.08.08-.12.05-.06.11-.12.17-.18.06-.05.12-.11.19-.16.02-.01.03-.02.05-.03.08.16.16.33.22.49.03.08.05.17.08.25.04.2.08.4.1.6.02.32.02.64.02.96-.03.37-.08.74-.13,1.11-.05.23-.11.46-.17.69-.08.24-.17.47-.27.71-.08.16-.16.31-.25.46-.09.13-.18.25-.27.37-.03.04-.07.07-.1.11-.05.05-.11.1-.16.14-.15.1-.3.2-.46.29-.39.21-.79.4-1.19.59-1.15.55-1.67,1.94-1.13,3.1.51,1.1,1.83,1.63,2.95,1.19.05-.02.1-.04.15-.06,1.5-.71,3-1.49,3.94-2.93,1.21-1.85,1.72-3.94,1.76-6.13.05-2.73-1.33-6.42-4.48-6.74ZM341.96,356.49s.02-.02.03-.04c-.01.02-.02.04-.04.06,0,0,0,.02-.01.03,0,0,0-.02,0-.02-.03.05-.06.1-.09.15.03-.06.07-.11.1-.17.01-.04.03-.07.05-.11-.01.03-.03.07-.04.1Z"/>
  <path class="cls-1" d="M351.81,340.66c-1.02-.13-2.14-.12-3.15.05-.8.15-1.47.47-2.04,1.07-.81.85-.98,2.12-.94,3.24,0,.02,0,.03,0,.04-.71.65-.98,1.76-.57,2.65.12.3.3.56.53.77.21.26.41.53.61.8.6.85,1.18,1.72,1.86,2.5.8.92,1.66,1.77,2.64,2.51.96.72,1.99,1.32,3.08,1.81,1.29.59,2.88,1.12,4.25.58.18-.07.35-.16.52-.26,1.88-1.2,2.03-3.76,1.74-5.75-.24-1.65-.6-3.34-1.44-4.8-.66-1.16-1.51-2.19-2.44-3.14-1.27-1.28-2.93-1.84-4.66-2.07ZM355.15,348.76c.12.33.21.67.3,1.02.12.55.22,1.1.31,1.66.01.15.02.29.03.43-.5-.24-.99-.5-1.47-.78-.31-.21-.62-.42-.92-.65-.46-.39-.89-.79-1.31-1.21-.43-.49-.83-1-1.22-1.52-.32-.46-.64-.93-.98-1.39.23-.31.39-.68.44-1.08.18,0,.37,0,.55,0,.26.03.52.06.78.1.18.04.36.08.54.12.14.05.27.1.41.16.05.03.11.06.16.08.08.05.15.1.22.16.18.16.35.32.52.49.29.33.57.67.84,1.02.19.27.36.54.53.82.09.19.18.37.27.56Z"/>
  <path class="cls-1" d="M349.97,331.96c-1.19.47-1.64,1.99-1.13,3.09.56,1.21,1.91,1.6,3.09,1.13,1.19-.47,1.64-1.99,1.13-3.09-.56-1.21-1.91-1.6-3.09-1.13Z"/>
  <path class="cls-1" d="M114.68,414.29c3.47,5.04,7.02,10.01,10.63,14.96,3.48,4.76,7.1,9.43,10.54,14.22,3.41,4.75,6.68,9.6,9.95,14.46,2.87,4.26,5.97,8.37,8.86,12.63-.8.87-1.62,1.71-2.44,2.56-.44.46-.89.92-1.33,1.4-.27.28-.53.57-.78.87-.45.51-.74,1-.95,1.64-.29.9.06,1.97.71,2.62.62.62,1.42.83,2.27.77.28-.02.55-.09.8-.18,1.01-.4,1.8-1.34,2.53-2.1.53-.55,1.05-1.12,1.56-1.68.96-1.05,1.88-2.13,2.84-3.19,2.21-2.45,4.48-4.84,6.85-7.13,1.06-1.02,1.03-2.81,0-3.85-1.06-1.06-2.78-1.02-3.85,0-1.47,1.42-2.91,2.88-4.31,4.37-1.9-2.72-3.85-5.42-5.76-8.13-3.39-4.81-6.58-9.76-9.95-14.59-3.24-4.65-6.68-9.14-10.05-13.69-3.59-4.84-7.17-9.68-10.6-14.62-3.38-4.87-6.72-9.77-10.18-14.6-3.44-4.8-7.05-9.49-10.48-14.29-3.53-4.94-6.96-9.95-10.37-14.97-6.77-9.98-13.43-20.04-20.31-29.95-3.38-4.87-6.87-9.68-10.35-14.49-3.4-4.72-6.7-9.5-9.96-14.32.03.05.07.11.1.16-3.24-4.92-6.47-9.84-9.7-14.76-1.67-2.54-3.34-5.08-5.02-7.63-.87-1.31-1.74-2.62-2.6-3.93,3.02-1.98,6.04-3.96,9.19-5.71,1.3-.72,1.74-2.43,1.02-3.71-.75-1.3-2.42-1.74-3.71-1.02-3.56,1.98-6.97,4.23-10.38,6.47-.95-.11-1.9.22-2.51,1.02-.21.27-.33.58-.42.89-1.68,1.09-3.37,2.18-5.06,3.26-.91.58-1.82,1.15-2.72,1.75-.98.66-2.11,1.32-2.84,2.27-.55.73-.73,1.81-.35,2.67,0,.01,0,.02.01.03.49,1.08,1.65,1.9,2.87,1.68.28-.05.55-.12.81-.22.2-.08.39-.17.58-.3.37-.24.68-.54.91-.89.43-.31.87-.61,1.3-.91,2.24-1.46,4.49-2.89,6.74-4.34.44.67.89,1.34,1.34,2-.03-.04-.05-.07-.08-.11,1.21,1.84,2.43,3.67,3.64,5.51,3.11,4.72,6.2,9.46,9.31,14.18,3.35,5.07,6.7,10.15,10.24,15.09,3.49,4.89,7.04,9.75,10.51,14.66,3.45,4.87,6.84,9.78,10.18,14.73,6.75,10.01,13.45,20.08,20.34,30.01,3.31,4.78,6.85,9.41,10.29,14.09,3.46,4.72,6.82,9.51,10.14,14.34Z"/>
  <path class="cls-1" d="M97.52,402.68c-.45,0-.89.03-1.34.04.09,0,.18,0,.28-.01-.08,0-.15,0-.23,0,.02,0,.04,0,.06,0-.15,0-.3.01-.45.02-1.17.03-2.33.05-3.5-.02-.19-.02-.38-.04-.58-.07.19-.29.38-.58.57-.87.68-1,1.39-1.99,1.79-3.15.3-.86.09-1.9-.53-2.57-.57-.61-1.53-.87-2.34-.66-.84.22-1.64.56-2.43.92-1.63.73-3.18,1.62-4.76,2.46-.79.42-1.58.82-2.39,1.19-.36.17-.71.31-1.04.52-.47.31-.82.88-.9,1.44-.16,1.16.61,2.29,1.8,2.47.48.08.97-.02,1.38-.25.61-.3,1.24-.57,1.85-.88.72-.36,1.43-.74,2.14-1.12.08-.04.16-.08.24-.13-.32.76-.41,1.57-.11,2.39.4,1.07,1.49,1.79,2.53,2.14.74.24,1.5.39,2.28.47-.81.57-1.59,1.19-2.3,1.89-.83.83-.94,2.17-.11,3.06.6.64,1.6.86,2.4.54.24-.09.46-.24.65-.43.31-.31.65-.6.98-.88.68-.53,1.37-1.03,2.09-1.5.79-.51,1.58-1,2.34-1.55.73-.54,1.42-1.11,1.86-1.9.44-.78.45-1.8-.08-2.55-.49-.69-1.31-1.04-2.15-1.02Z"/>
  <path class="cls-1" d="M109.52,418.37c-.45,0-.89.03-1.34.04.09,0,.18,0,.28-.01-.08,0-.15,0-.23,0,.02,0,.04,0,.06,0-.15,0-.3.01-.45.02-1.17.03-2.33.05-3.5-.02-.19-.02-.38-.04-.58-.07.19-.29.38-.58.57-.87.68-1,1.39-1.99,1.79-3.15.3-.86.09-1.9-.53-2.57-.57-.61-1.53-.87-2.34-.66-.84.22-1.64.56-2.43.92-1.63.73-3.18,1.62-4.76,2.46-.79.42-1.58.82-2.39,1.19-.36.17-.71.31-1.04.52-.47.31-.82.88-.9,1.44-.16,1.16.61,2.29,1.8,2.47.48.08.97-.02,1.38-.25.61-.3,1.24-.57,1.85-.88.72-.36,1.43-.74,2.14-1.12.08-.04.16-.08.24-.13-.32.76-.41,1.57-.11,2.39.4,1.07,1.49,1.79,2.53,2.14.74.24,1.5.39,2.28.47-.81.57-1.59,1.19-2.3,1.89-.83.83-.94,2.17-.11,3.06.6.64,1.6.86,2.4.54.24-.09.46-.24.65-.43.31-.31.65-.6.98-.88.68-.53,1.37-1.03,2.09-1.5.79-.51,1.58-1,2.34-1.55.73-.54,1.42-1.11,1.86-1.9.44-.78.45-1.8-.08-2.55-.49-.69-1.31-1.04-2.15-1.02Z"/>
  <path class="cls-1" d="M70.11,377.9c.28-.57.42-1.18.44-1.8,2.15.38,4.49.26,5.97-1.44.98-1.12.98-2.7.59-4.05-.39-1.33-1.13-2.52-2.2-3.4-1.19-.99-2.62-1.71-4-2.4-1.13-.57-2.56-.1-3.13,1.04-.57,1.14-.1,2.56,1.04,3.13.54.27,1.07.55,1.6.83.53.32,1.05.65,1.55,1.01.04.04.08.07.12.11.04.05.09.09.13.14.06.08.11.16.17.25.04.07.08.15.11.22,0,.02.02.05.03.07-.11,0-.22.01-.32.02-.17,0-.35-.01-.52-.03-.37-.05-.73-.13-1.09-.22-.73-.22-1.44-.48-2.14-.77-.59-.26-1.2-.6-1.83-.73-1.34-.29-2.72.77-2.78,2.15-.04.81.3,1.48.85,2.05.3.31.59.61.87.94.03.04.05.08.08.12.04.07.08.15.11.22.03.08.06.15.08.23,0,.02,0,.04.01.05-.18.02-.36.03-.54.04-.09,0-.17,0-.26-.02-.2-.03-.4-.07-.6-.12-.31-.1-.61-.21-.9-.32-.34-.16-.67-.34-1-.52-.19-.13-.39-.27-.58-.4-.19-.16-.38-.33-.56-.5-.12-.13-.23-.26-.35-.4-.09-.13-.17-.26-.25-.39-.02-.04-.04-.09-.07-.13-.02-.07-.05-.14-.08-.2-.04-.18-.08-.35-.11-.53-.05-.44-.09-.88-.13-1.32-.11-1.27-1.22-2.25-2.49-2.16-1.21.09-2.18,1.13-2.16,2.34,0,.05,0,.11,0,.16.13,1.66.32,3.33,1.33,4.73,1.29,1.79,3.07,3.01,5.11,3.82,2.54,1.02,6.47,1.04,7.89-1.79ZM72.18,371s.02.02.02.04c-.01-.02-.03-.04-.04-.05,0,0-.01-.01-.02-.02,0,0,.01.01.02.02-.04-.05-.07-.09-.1-.14.04.05.08.1.12.15.03.03.06.05.08.08-.03-.02-.05-.05-.08-.07Z"/>
  <path class="cls-1" d="M71.09,390.26c1.63.36,3.34.62,5,.36,1.32-.21,2.58-.63,3.8-1.16,1.64-.73,2.76-2.09,3.6-3.62.49-.9.88-1.96,1.07-2.97.15-.8.09-1.54-.27-2.28-.51-1.06-1.63-1.67-2.7-2.03-.01,0-.03,0-.04-.01-.36-.89-1.29-1.54-2.27-1.47-.32,0-.63.09-.91.22-.32.11-.64.19-.96.28-1,.26-2.03.49-3,.85-1.14.43-2.25.92-3.28,1.57-1.01.64-1.94,1.39-2.79,2.23-1.01.99-2.07,2.29-2.05,3.77,0,.19.02.38.06.58.45,2.19,2.79,3.23,4.76,3.67ZM72.84,384.46c.31-.22.61-.43.93-.63.52-.29,1.06-.55,1.6-.79.61-.23,1.23-.42,1.86-.6.54-.14,1.1-.27,1.64-.42.21.33.5.61.85.8-.06.17-.12.35-.19.52-.12.23-.24.47-.37.69-.1.16-.2.31-.31.46-.09.11-.19.22-.29.32-.05.04-.09.08-.14.13-.07.05-.15.1-.23.15-.21.11-.43.21-.64.31-.42.15-.83.29-1.26.42-.32.08-.63.15-.96.21-.21.02-.41.04-.62.05-.35-.01-.7-.04-1.06-.08-.56-.08-1.11-.18-1.66-.31-.14-.04-.28-.08-.42-.13.4-.38.82-.74,1.25-1.09Z"/>
</svg>